<svg width="63" height="62" viewBox="0 0 63 62" fill="none" xmlns="http://www.w3.org/2000/svg">
<circle cx="31.5" cy="31" r="24" fill="#0E54A2"/>
<path d="M13.4175 28.0613H8.5004C8.45405 35.762 12.4062 51.5307 28.5858 53V45.6149C28.5858 44.2848 28.0531 43.0091 27.1049 42.0686C26.1567 41.128 24.8706 40.5996 23.5297 40.5996C22.1887 40.5996 20.9027 40.0712 19.9545 39.1307C19.0063 38.1901 18.4736 36.9144 18.4736 35.5843V33.0766C18.4736 31.7465 17.9409 30.4708 16.9927 29.5303C16.0445 28.5897 14.7584 28.0613 13.4175 28.0613Z" fill="#009024"/>
<path d="M21.0016 14.2692V10.3447C23.2854 8.5317 28.6947 8.02615 31.1138 8C37.1481 8 42.9353 10.3778 47.2022 14.6103C48.4986 15.9931 51.1731 19.1146 51.5 20.5383H48.8102C47.4692 20.5383 46.1832 21.0667 45.235 22.0073C44.2868 22.9478 43.7541 24.2235 43.7541 25.5536C43.7541 26.8838 43.2214 28.1595 42.2732 29.1C41.325 30.0406 40.0389 30.569 38.698 30.569C37.357 30.569 36.071 30.0406 35.1228 29.1C34.1746 28.1595 33.6419 26.8838 33.6419 25.5536C33.6419 24.2235 33.1092 22.9478 32.161 22.0073C31.2128 21.0667 29.9267 20.5383 28.5858 20.5383H27.3217C25.6455 20.5383 24.038 19.8778 22.8527 18.7021C21.6675 17.5264 21.0016 15.9318 21.0016 14.2692Z" fill="#009024"/>
<path d="M40.1789 42.0686C39.2307 43.0091 38.698 44.2848 38.698 45.6149V51.9245C42.6658 51.4931 50.7813 48.6241 51.5 40.5996H43.7541C42.4131 40.5996 41.1271 41.128 40.1789 42.0686Z" fill="#009024"/>
<path d="M8.39208 28.4167H13.4167C14.787 28.4167 16.1011 28.961 17.0701 29.9299C18.039 30.8989 18.5833 32.213 18.5833 33.5833V36.1667C18.5833 37.537 19.1277 38.8511 20.0966 39.82C21.0656 40.789 22.3797 41.3333 23.75 41.3333C25.1203 41.3333 26.4344 41.8777 27.4034 42.8466C28.3723 43.8156 28.9167 45.1297 28.9167 46.5V54.1079M21.1667 10.1654V14.2083C21.1667 15.9212 21.8471 17.5639 23.0583 18.7751C24.2694 19.9862 25.9121 20.6667 27.625 20.6667H28.9167C30.287 20.6667 31.6011 21.211 32.57 22.1799C33.539 23.1489 34.0833 24.463 34.0833 25.8333C34.0833 27.2036 34.6277 28.5178 35.5966 29.4867C36.5656 30.4557 37.8797 31 39.25 31C40.6203 31 41.9344 30.4557 42.9034 29.4867C43.8723 28.5178 44.4167 27.2036 44.4167 25.8333C44.4167 24.463 44.961 23.1489 45.9299 22.1799C46.8989 21.211 48.213 20.6667 49.5833 20.6667H52.332M39.25 52.9273V46.5C39.25 45.1297 39.7943 43.8156 40.7633 42.8466C41.7322 41.8777 43.0464 41.3333 44.4167 41.3333H52.332M54.75 31C54.75 34.0532 54.1486 37.0766 52.9802 39.8974C51.8118 42.7182 50.0992 45.2813 47.9402 47.4402C45.7813 49.5992 43.2182 51.3118 40.3974 52.4802C37.5766 53.6486 34.5532 54.25 31.5 54.25C28.4468 54.25 25.4234 53.6486 22.6026 52.4802C19.7818 51.3118 17.2187 49.5992 15.0598 47.4402C12.9008 45.2813 11.1882 42.7182 10.0198 39.8974C8.85138 37.0766 8.25 34.0532 8.25 31C8.25 24.8337 10.6995 18.92 15.0598 14.5598C19.42 10.1995 25.3337 7.75 31.5 7.75C37.6663 7.75 43.58 10.1995 47.9402 14.5598C52.3004 18.92 54.75 24.8337 54.75 31Z" stroke="#515151" stroke-width="2" stroke-linecap="round" stroke-linejoin="round"/>
</svg>
