<svg width="384" height="118" viewBox="0 0 384 118" fill="none" xmlns="http://www.w3.org/2000/svg">
<g clip-path="url(#clip0_5669_2964)">
<path d="M17.0599 100.33C24.5796 107.875 34.0319 113.203 44.3799 115.73L58.2399 101.86L36.8899 80.51C34.0843 77.7064 31.8586 74.3773 30.3401 70.7131C28.8216 67.0489 28.04 63.1214 28.04 59.155C28.04 55.1887 28.8216 51.2612 30.3401 47.597C31.8586 43.9328 34.0843 40.6037 36.8899 37.8L15.5299 59.19L1.66992 73.06C4.19597 83.3918 9.52099 92.8274 17.0599 100.33Z" fill="url(#paint0_linear_5669_2964)"/>
<path d="M1.66993 45.3299C-0.550134 54.4399 -0.550134 63.9498 1.66993 73.0599L15.5299 59.1899L36.8899 37.8399C42.5549 32.1785 50.236 28.9983 58.2449 28.9983C66.2538 28.9983 73.935 32.1785 79.5999 37.8399L58.2399 16.4899L44.3799 2.61987C34.0384 5.15782 24.5898 10.4806 17.0602 18.0102C9.53065 25.5397 4.20788 34.9883 1.66993 45.3299Z" fill="url(#paint1_linear_5669_2964)"/>
<path d="M114.78 73.0601C117 63.95 117 54.4401 114.78 45.3301L100.92 59.1901L114.78 73.0601Z" fill="url(#paint2_linear_5669_2964)"/>
<path d="M41.9199 115.1C42.7299 115.34 43.5499 115.56 44.3799 115.77L58.2399 101.9L53.3199 96.98C51.0999 105 45.8599 111.33 41.9199 115.1Z" fill="url(#paint3_linear_5669_2964)"/>
<path d="M58.2401 16.4899L79.6001 37.8399L100.95 59.1899L114.78 45.3299C112.242 34.9901 106.92 25.5429 99.3928 18.0136C91.8653 10.4843 82.4193 5.16046 72.0801 2.61988C62.9701 0.399817 53.4601 0.399817 44.3501 2.61988L58.2401 16.4899Z" fill="url(#paint4_linear_5669_2964)"/>
<path d="M79.5999 37.8398C85.2613 43.5048 88.4415 51.1859 88.4415 59.1949C88.4415 67.2038 85.2613 74.8849 79.5999 80.5499L58.2399 101.9L44.3799 115.77C54.098 118.149 64.2653 117.981 73.8997 115.283C83.5341 112.586 92.3101 107.449 99.3799 100.37C106.929 92.8573 112.258 83.407 114.78 73.0598L100.92 59.1898L79.5999 37.8398Z" fill="url(#paint5_linear_5669_2964)"/>
<path d="M79.5901 37.8399L100.94 59.1899L114.78 73.0599C117 63.9498 117 54.4399 114.78 45.3299C112.242 34.9901 106.92 25.5429 99.3928 18.0136C91.8653 10.4843 82.4193 5.16045 72.0801 2.61987L58.2101 16.4899L36.8601 37.8399C39.6648 35.0324 42.9953 32.8053 46.6613 31.2858C50.3272 29.7662 54.2567 28.9841 58.2251 28.9841C62.1935 28.9841 66.123 29.7662 69.7889 31.2858C73.4549 32.8053 76.7854 35.0324 79.5901 37.8399Z" fill="url(#paint6_linear_5669_2964)"/>
<path opacity="0.52" d="M78.2499 36.5799L81.1299 33.6999L61.1299 13.6499L58.2899 16.4899L36.9399 37.8399C42.3745 32.4163 49.6713 29.2671 57.3455 29.033C65.0198 28.7989 72.495 31.4976 78.2499 36.5799Z" fill="url(#paint7_linear_5669_2964)"/>
<path d="M80.7 35.8101C80.88 37.0501 81.08 38.3001 81.33 39.5701L100.95 59.1901L114.78 73.0601C115.355 70.7091 115.782 68.3244 116.06 65.9201C102.2 56.5701 89.29 44.5301 80.7 35.8101Z" fill="url(#paint8_linear_5669_2964)"/>
<path d="M5.92992 85.5699L28.0599 63.4299C27.4613 58.9541 27.8756 54.401 29.2724 50.1068C30.6692 45.8126 33.0127 41.887 36.1299 38.6199L15.2799 59.4499L1.41992 73.3299C2.45326 77.568 3.96637 81.6745 5.92992 85.5699Z" fill="url(#paint9_linear_5669_2964)"/>
<path d="M59.0101 75.6C68.0676 75.6 75.4101 68.2575 75.4101 59.2001C75.4101 50.1426 68.0676 42.8 59.0101 42.8C49.9526 42.8 42.6101 50.1426 42.6101 59.2001C42.6101 68.2575 49.9526 75.6 59.0101 75.6Z" fill="#FFD951"/>
<path d="M79.6001 37.8399C79.1701 37.3999 78.7201 36.9899 78.2601 36.5799C74.6858 33.4099 70.4077 31.1371 65.7801 29.9499H65.6601C65.2701 29.8499 64.8901 29.7699 64.5001 29.6899L64.2601 29.6299L63.1701 29.4399L62.8601 29.3799L61.8601 29.2499H61.4801L60.4801 29.1599H60.0401H59.1001H57.7101C57.5401 29.1599 55.2001 29.3099 54.9201 29.3399L54.3401 29.4099C54.0701 29.4099 52.3901 29.7199 52.1301 29.7799L50.7501 30.0899L50.3001 30.2199L48.7401 30.6899C48.5001 30.7699 46.9101 31.3499 46.7401 31.4499L46.0701 31.7399C45.8501 31.8299 44.9701 32.2499 44.7501 32.3599L44.1201 32.6799C43.8901 32.7999 43.0501 33.2799 42.8501 33.3999C42.6501 33.5199 42.4001 33.6799 42.1701 33.8199L41.6001 34.1799L40.9201 34.6599C40.7401 34.7799 40.5601 34.8999 40.3901 35.0299L39.6901 35.5799L39.2101 35.9499L39.0901 36.0599L38.4401 36.6099L38.0601 36.9399C37.6901 37.2799 37.3201 37.6299 36.9601 37.9399C36.6001 38.2499 36.3001 38.6199 35.9601 38.9399C35.8901 39.0199 35.8301 39.0999 35.7601 39.1699C30.6257 44.9246 27.8876 52.4255 28.107 60.1345C28.3264 67.8436 31.4868 75.1766 36.9401 80.6299V80.6299L53.3701 97.0599L58.2901 101.98L79.6501 80.6299C82.462 77.8201 84.6918 74.483 86.2116 70.8099C87.7314 67.1367 88.5114 63.1997 88.5067 59.2245C88.5021 55.2494 87.713 51.3142 86.1846 47.6446C84.6562 43.975 82.4186 40.6431 79.6001 37.8399V37.8399Z" stroke="#FFD951" stroke-width="0.76" stroke-miterlimit="10"/>
<path d="M193.64 62.3301H151.78C152.14 67.1301 153.703 70.9501 156.47 73.7901C157.856 75.1837 159.514 76.2761 161.341 76.9988C163.169 77.7215 165.126 78.059 167.09 77.9901C170.058 78.1049 172.985 77.2637 175.44 75.5901C177.353 74.0507 179.037 72.2458 180.44 70.2301C181.145 69.2788 182.173 68.6171 183.33 68.3686C184.488 68.1202 185.697 68.302 186.73 68.8801C187.744 69.445 188.617 70.2322 189.284 71.1826C189.95 72.133 190.393 73.2219 190.578 74.3678C190.764 75.5137 190.688 76.6867 190.356 77.7989C190.023 78.9112 189.444 79.9338 188.66 80.7901C186.815 82.8339 184.695 84.6109 182.36 86.0701C180.111 87.4425 177.662 88.4548 175.1 89.0701C172.327 89.7427 169.483 90.0784 166.63 90.0701C157.91 90.0701 150.91 87.2701 145.63 81.6701C140.35 76.0701 137.71 68.5834 137.71 59.2101C137.71 49.9701 140.27 42.4867 145.39 36.7601C150.51 31.0334 157.327 28.2234 165.84 28.3301C174.447 28.3301 181.25 31.0701 186.25 36.5501C191.25 42.0301 193.733 49.5734 193.7 59.1801L193.64 62.3301ZM179.78 51.3301C177.9 44.1301 173.357 40.5267 166.15 40.5201C164.579 40.5091 163.017 40.7626 161.53 41.2701C160.107 41.761 158.777 42.4915 157.6 43.4301C156.424 44.395 155.411 45.5431 154.6 46.8301C153.729 48.2209 153.082 49.7392 152.68 51.3301H179.78Z" fill="#FFD951"/>
<path d="M231.26 56.3999C231.26 50.7799 230.48 46.8932 228.92 44.7399C227.4 42.5599 224.62 41.4599 220.6 41.4599C218.754 41.3906 216.922 41.8078 215.288 42.6695C213.654 43.5313 212.275 44.8073 211.29 46.3698C209.49 49.2198 209.16 53.6298 209.16 60.7298V88.2598H195.36V26.0898L208.6 31.3298C210.572 29.6207 212.977 28.4861 215.55 28.0499C220.208 27.0741 225.035 27.2664 229.6 28.6098C229.9 28.6998 230.23 28.7999 230.6 28.9299C233.482 30.0001 236.07 31.7351 238.155 33.9939C240.241 36.2528 241.763 38.9718 242.6 41.9299C243.735 45.5962 244.387 49.3949 244.54 53.2298V88.2298H231.26V56.3999Z" fill="#FFD951"/>
<path d="M260.89 26.46V52.96L278.57 35.4H295.4L271.78 58.21L297.09 89.71H280.85L262.9 66.79L260.9 68.79V89.7H248.34V26.46H260.89Z" fill="#FFD951"/>
<path d="M288.37 62.16C288.314 58.4252 289.033 54.7194 290.482 51.2769C291.932 47.8343 294.079 44.7299 296.79 42.16C302.33 36.8576 309.706 33.9021 317.375 33.9114C325.044 33.9207 332.412 36.8941 337.94 42.21C343.312 47.6582 346.319 55.0043 346.31 62.6553C346.3 70.3062 343.275 77.645 337.89 83.08C335.146 85.7657 331.891 87.8749 328.319 89.2832C324.747 90.6915 320.929 91.3704 317.09 91.28C313.288 91.3709 309.508 90.6752 305.987 89.2366C302.466 87.798 299.281 85.6475 296.63 82.92C291.13 77.4067 288.377 70.4867 288.37 62.16ZM301.2 62.39C301.2 67.81 302.65 72.1033 305.55 75.27C307.053 76.8633 308.881 78.1154 310.91 78.9417C312.939 79.768 315.121 80.1494 317.31 80.06C322.223 80.06 326.147 78.48 329.08 75.32C332.013 72.16 333.48 67.9433 333.48 62.67C333.48 57.39 332.013 53.17 329.08 50.01C327.576 48.4142 325.747 47.1598 323.716 46.3317C321.686 45.5036 319.501 45.1211 317.31 45.21C315.138 45.1286 312.973 45.5151 310.963 46.3433C308.953 47.1714 307.145 48.4219 305.66 50.01C302.693 53.21 301.207 57.3367 301.2 62.39Z" fill="#FFD951"/>
<path d="M347.58 35.4H360.13V40.25C361.883 38.2557 363.954 36.5661 366.26 35.25C368.275 34.2785 370.494 33.8019 372.73 33.86C376.417 33.9692 380.003 35.0863 383.1 37.09L377.36 48.57C375.358 46.9953 372.906 46.0986 370.36 46.01C363.52 46.01 360.1 51.1766 360.1 61.51V89.67H347.58V35.4Z" fill="#FFD951"/>
</g>
<defs>
<linearGradient id="paint0_linear_5669_2964" x1="3.40992" y1="66.41" x2="51.7299" y2="79.9301" gradientUnits="userSpaceOnUse">
<stop stop-color="#1742B8"/>
<stop offset="1" stop-color="#E74346"/>
</linearGradient>
<linearGradient id="paint1_linear_5669_2964" x1="-29.7376" y1="55.318" x2="75.2041" y2="20.3375" gradientUnits="userSpaceOnUse">
<stop stop-color="#00A2E8"/>
<stop offset="1" stop-color="#142F81"/>
</linearGradient>
<linearGradient id="paint2_linear_5669_2964" x1="108.523" y1="68.0956" x2="108.94" y2="49.2512" gradientUnits="userSpaceOnUse">
<stop stop-color="#CF4148"/>
<stop offset="1" stop-color="#088A51"/>
</linearGradient>
<linearGradient id="paint3_linear_5669_2964" x1="52.0747" y1="109.539" x2="47.7048" y2="106.103" gradientUnits="userSpaceOnUse">
<stop stop-color="#414242"/>
<stop offset="1" stop-color="#E74346" stop-opacity="0"/>
</linearGradient>
<linearGradient id="paint4_linear_5669_2964" x1="110.864" y1="49.2793" x2="54.2881" y2="-7.29627" gradientUnits="userSpaceOnUse">
<stop stop-color="#009844"/>
<stop offset="0.16" stop-color="#008B59"/>
<stop offset="1" stop-color="#142F81"/>
</linearGradient>
<linearGradient id="paint5_linear_5669_2964" x1="61.2299" y1="110.26" x2="104.95" y2="47.8398" gradientUnits="userSpaceOnUse">
<stop stop-color="#FFD951"/>
<stop offset="1" stop-color="#E74346"/>
</linearGradient>
<linearGradient id="paint6_linear_5669_2964" x1="58.7801" y1="16.7499" x2="125.52" y2="95.2799" gradientUnits="userSpaceOnUse">
<stop stop-color="#00A529"/>
<stop offset="0.16" stop-color="#008B59"/>
<stop offset="1" stop-color="#142F81"/>
</linearGradient>
<linearGradient id="paint7_linear_5669_2964" x1="62.3065" y1="32.4714" x2="73.3091" y2="21.4688" gradientUnits="userSpaceOnUse">
<stop stop-color="#414242"/>
<stop offset="0.75" stop-color="#00913A" stop-opacity="0"/>
</linearGradient>
<linearGradient id="paint8_linear_5669_2964" x1="95.2585" y1="57.6069" x2="99.388" y2="52.346" gradientUnits="userSpaceOnUse">
<stop stop-color="#414242"/>
<stop offset="0.73" stop-color="#1F296F" stop-opacity="0"/>
</linearGradient>
<linearGradient id="paint9_linear_5669_2964" x1="-330755" y1="-101142" x2="-330277" y2="-100664" gradientUnits="userSpaceOnUse">
<stop stop-color="#414242"/>
<stop offset="0.73" stop-color="#1F296F" stop-opacity="0"/>
</linearGradient>
<clipPath id="clip0_5669_2964">
<rect width="383.1" height="116.48" fill="white" transform="translate(0 0.959961)"/>
</clipPath>
</defs>
</svg>
