<svg width="53" height="52" viewBox="0 0 53 52" fill="none" xmlns="http://www.w3.org/2000/svg">
<circle cx="26.5" cy="26" r="25" fill="white" stroke="#515151" stroke-width="2"/>
<rect x="10.7256" y="15.2578" width="31.5484" height="21.4839" rx="1" fill="#FFD951" stroke="#515151" stroke-width="2"/>
<path d="M23.0015 24.1782C23.6307 23.5491 23.9841 22.6958 23.9841 21.806C23.9841 20.9163 23.6307 20.0629 23.0015 19.4338C22.3723 18.8046 21.519 18.4512 20.6293 18.4512C19.7395 18.4512 18.8862 18.8046 18.257 19.4338C17.6279 20.0629 17.2744 20.9163 17.2744 21.806C17.2744 22.6958 17.6279 23.5491 18.257 24.1782C18.8862 24.8074 19.7395 25.1608 20.6293 25.1608C21.519 25.1608 22.3723 24.8074 23.0015 24.1782Z" fill="white"/>
<path d="M16.4779 29.3965C17.5789 28.2955 19.0722 27.677 20.6293 27.677C22.1863 27.677 23.6796 28.2955 24.7807 29.3965C25.8817 30.4976 26.5002 31.9909 26.5002 33.5479H14.7583C14.7583 31.9909 15.3768 30.4976 16.4779 29.3965Z" fill="white"/>
<path d="M23.0015 24.1782C23.6307 23.5491 23.9841 22.6958 23.9841 21.806C23.9841 20.9163 23.6307 20.0629 23.0015 19.4338C22.3723 18.8046 21.519 18.4512 20.6293 18.4512C19.7395 18.4512 18.8862 18.8046 18.257 19.4338C17.6279 20.0629 17.2744 20.9163 17.2744 21.806C17.2744 22.6958 17.6279 23.5491 18.257 24.1782C18.8862 24.8074 19.7395 25.1608 20.6293 25.1608C21.519 25.1608 22.3723 24.8074 23.0015 24.1782Z" stroke="#515151" stroke-width="2" stroke-linecap="round" stroke-linejoin="round"/>
<path d="M16.4779 29.3965C17.5789 28.2955 19.0722 27.677 20.6293 27.677C22.1863 27.677 23.6796 28.2955 24.7807 29.3965C25.8817 30.4976 26.5002 31.9909 26.5002 33.5479H14.7583C14.7583 31.9909 15.3768 30.4976 16.4779 29.3965Z" stroke="#515151" stroke-width="2" stroke-linecap="round" stroke-linejoin="round"/>
<path d="M27.3394 19.29H38.2426M27.3394 22.6449H34.8877M27.3394 25.9997H34.8877" stroke="#515151" stroke-width="2" stroke-linecap="round" stroke-linejoin="round"/>
</svg>
