<svg width="1440" height="672" viewBox="0 0 1440 672" fill="none" xmlns="http://www.w3.org/2000/svg">
<g clip-path="url(#clip0_6066_5068)">
<path opacity="0.15" d="M0 0H1440V672H0V0Z" fill="#FFEEB4"/>
<path d="M1206.03 932.516C1393.11 932.516 1544.76 780.865 1544.76 593.793C1544.76 406.722 1393.11 255.07 1206.03 255.07C1018.96 255.07 867.312 406.722 867.312 593.793C867.312 780.865 1018.96 932.516 1206.03 932.516Z" stroke="#FFD951" stroke-linecap="round" stroke-linejoin="round" stroke-dasharray="2 3"/>
<path d="M1082.77 936.19C1030.76 936.19 987.501 920.17 956.51 889.18C864.938 797.607 911.724 601.766 1060.75 452.811C1132.93 380.658 1218.03 330.048 1300.38 310.354C1382.73 290.66 1452.84 304.181 1497.12 348.567C1535.64 387.106 1551.23 446.588 1541.01 516.017L1539.78 515.842C1549.93 446.763 1534.46 387.656 1496.22 349.417C1452.16 305.33 1382.71 291.934 1300.68 311.528C1218.66 331.123 1133.66 381.657 1061.65 453.661C913.074 602.241 866.313 797.207 957.385 888.255C993.649 924.519 1046.88 940.114 1111.34 933.366L1111.46 934.616C1101.93 935.637 1092.36 936.163 1082.77 936.19V936.19Z" fill="#FFD951"/>
<path d="M1352.04 878.808C1266.17 878.808 1166 844.468 1076.22 777.288C910.698 653.426 842.293 464.133 923.769 355.315C959.483 307.58 1020.21 281.138 1094.74 280.888V282.137C1020.61 282.387 960.258 308.629 924.793 356.065C843.793 464.332 912.072 652.851 1077.05 776.289C1242.02 899.726 1442.14 912.073 1523.16 803.78C1556.7 758.919 1565.88 699.912 1549.66 633.132L1550.88 632.832C1567.18 700.012 1557.93 759.369 1524.16 804.505C1486.82 854.34 1424.52 878.783 1352.04 878.808Z" fill="#FFD951"/>
<path d="M1047.79 733.301C1021.49 733.427 995.217 731.622 969.184 727.903C891.707 716.381 843.447 687.715 833.65 647.177C823.852 606.64 853.643 559.129 917.399 513.468C981.155 467.806 1071.03 429.518 1170.72 405.425C1270.42 381.332 1367.99 374.384 1445.39 385.881C1522.79 397.377 1571.15 426.044 1580.95 466.607C1590.75 507.169 1560.96 554.63 1497.2 600.291C1433.44 645.953 1343.6 684.216 1243.88 708.309C1175.57 724.804 1108.27 733.301 1047.79 733.301ZM1366.91 381.807C1307.83 381.807 1240.7 389.805 1171 406.65C1071.45 430.692 981.63 468.981 918.124 514.442C854.618 559.904 825.202 606.914 834.874 646.902C844.546 686.89 892.357 715.257 969.384 726.678C1046.41 738.1 1144.03 731.202 1243.58 707.159L1243.73 707.759L1243.58 707.159C1448.94 657.549 1599.74 549.707 1579.72 466.957C1566.5 412.173 1481.98 381.807 1366.91 381.807Z" fill="#FFD951"/>
<path d="M1122.06 974.079C1117.01 974.069 1111.98 973.474 1107.06 972.305C1066.5 962.507 1038.09 913.347 1027.09 833.871C1016.09 754.395 1023.59 654.625 1048.31 552.281C1073.02 449.937 1111.96 357.539 1157.97 292.059C1203.99 226.579 1251.8 195.638 1292.36 205.435C1332.92 215.232 1361.34 264.392 1372.33 343.844C1383.33 423.295 1375.81 523.115 1351.09 625.459C1326.37 727.803 1287.34 820.2 1241.32 885.756C1200.84 943.238 1159.1 974.079 1122.06 974.079ZM1277.16 204.91C1196.59 204.91 1097.22 354.091 1049.33 552.581C998.547 763.292 1024.39 951.061 1107.24 971.08C1147.23 980.752 1194.51 950.161 1240.3 884.956C1286.09 819.75 1325.1 727.328 1349.79 625.034L1350.39 625.184L1349.79 625.034C1400.7 414.272 1374.78 226.529 1291.88 206.535C1287.06 205.408 1282.12 204.863 1277.16 204.91Z" fill="#FFD951"/>
<path d="M936.066 632.907C936.939 633.783 938.053 634.38 939.265 634.622C940.478 634.865 941.735 634.742 942.878 634.27C944.021 633.798 944.998 632.997 945.685 631.969C946.372 630.941 946.739 629.732 946.739 628.496C946.739 627.259 946.372 626.05 945.685 625.022C944.998 623.994 944.021 623.194 942.878 622.721C941.735 622.249 940.478 622.126 939.265 622.369C938.053 622.612 936.939 623.209 936.066 624.085C934.899 625.256 934.243 626.842 934.243 628.496C934.243 630.149 934.899 631.736 936.066 632.907V632.907Z" fill="#FFD951"/>
<path d="M940.464 635.356C938.874 635.355 937.332 634.803 936.103 633.793C934.874 632.783 934.033 631.378 933.725 629.817C933.416 628.257 933.658 626.638 934.409 625.235C935.161 623.833 936.376 622.736 937.847 622.129C939.317 621.523 940.953 621.445 942.474 621.91C943.996 622.374 945.309 623.353 946.19 624.677C947.071 626.002 947.465 627.591 947.305 629.174C947.145 630.757 946.441 632.235 945.313 633.357C944.025 634.638 942.281 635.357 940.464 635.356V635.356ZM940.464 622.86C939.17 622.867 937.917 623.322 936.921 624.149C935.924 624.976 935.245 626.122 934.999 627.393C934.752 628.665 934.954 629.982 935.57 631.121C936.186 632.26 937.178 633.15 938.376 633.64C939.575 634.13 940.906 634.189 942.144 633.808C943.381 633.427 944.448 632.628 945.163 631.549C945.877 630.469 946.196 629.175 946.064 627.887C945.932 626.599 945.357 625.396 944.438 624.484C943.375 623.45 941.948 622.875 940.464 622.885V622.86Z" fill="#FFD951"/>
<path d="M893.855 533.787C894.729 534.659 895.843 535.252 897.054 535.492C898.266 535.732 899.521 535.607 900.662 535.134C901.803 534.66 902.778 533.86 903.464 532.833C904.149 531.805 904.515 530.598 904.515 529.363C904.515 528.128 904.149 526.92 903.464 525.893C902.778 524.866 901.803 524.065 900.662 523.592C899.521 523.119 898.266 522.994 897.054 523.234C895.843 523.473 894.729 524.067 893.855 524.939C893.27 525.518 892.806 526.207 892.489 526.966C892.172 527.725 892.009 528.54 892.009 529.363C892.009 530.186 892.172 531 892.489 531.76C892.806 532.519 893.27 533.208 893.855 533.787V533.787Z" fill="#FFD951"/>
<path d="M898.253 536.236C896.437 536.231 894.696 535.513 893.404 534.236C892.444 533.275 891.789 532.05 891.524 530.717C891.259 529.384 891.396 528.002 891.916 526.747C892.436 525.491 893.317 524.418 894.447 523.663C895.578 522.908 896.906 522.505 898.266 522.505C899.625 522.505 900.953 522.908 902.084 523.663C903.214 524.418 904.095 525.491 904.615 526.747C905.135 528.002 905.272 529.384 905.007 530.717C904.742 532.05 904.087 533.275 903.127 534.236C901.829 535.519 900.078 536.237 898.253 536.236V536.236ZM894.279 533.362C895.065 534.149 896.067 534.685 897.158 534.903C898.249 535.12 899.38 535.009 900.408 534.584C901.436 534.158 902.315 533.438 902.933 532.513C903.551 531.588 903.881 530.5 903.881 529.388C903.881 528.275 903.551 527.188 902.933 526.263C902.315 525.338 901.436 524.617 900.408 524.192C899.38 523.766 898.249 523.656 897.158 523.873C896.067 524.091 895.065 524.627 894.279 525.414C893.226 526.468 892.635 527.898 892.635 529.388C892.635 530.878 893.226 532.307 894.279 533.362V533.362Z" fill="#FFD951"/>
<path d="M1082.77 434.166C1083.65 435.042 1084.76 435.639 1085.97 435.882C1087.18 436.124 1088.44 436.002 1089.58 435.53C1090.73 435.057 1091.7 434.256 1092.39 433.228C1093.08 432.201 1093.45 430.992 1093.45 429.755C1093.45 428.519 1093.08 427.31 1092.39 426.282C1091.7 425.254 1090.73 424.453 1089.58 423.981C1088.44 423.508 1087.18 423.386 1085.97 423.629C1084.76 423.871 1083.65 424.468 1082.77 425.344C1082.19 425.922 1081.73 426.61 1081.42 427.367C1081.1 428.124 1080.94 428.935 1080.94 429.755C1080.94 430.575 1081.1 431.387 1081.42 432.144C1081.73 432.901 1082.19 433.588 1082.77 434.166V434.166Z" fill="#FFD951"/>
<path d="M1087.19 436.616C1086.06 436.62 1084.95 436.344 1083.95 435.813C1082.95 435.282 1082.09 434.512 1081.46 433.572C1080.83 432.632 1080.45 431.551 1080.33 430.425C1080.22 429.299 1080.39 428.162 1080.82 427.116C1081.25 426.07 1081.94 425.147 1082.81 424.429C1083.69 423.711 1084.73 423.221 1085.84 423.001C1086.95 422.781 1088.09 422.839 1089.18 423.169C1090.26 423.5 1091.24 424.092 1092.04 424.894C1093 425.856 1093.65 427.078 1093.91 428.408C1094.18 429.739 1094.04 431.117 1093.52 432.37C1093 433.623 1092.13 434.695 1091 435.45C1089.87 436.206 1088.55 436.611 1087.19 436.616V436.616ZM1087.19 424.12C1086.46 424.113 1085.73 424.253 1085.04 424.532C1084.36 424.811 1083.74 425.223 1083.22 425.744C1082.28 426.665 1081.69 427.884 1081.55 429.191C1081.41 430.498 1081.73 431.814 1082.46 432.912C1083.18 434.01 1084.26 434.823 1085.52 435.212C1086.77 435.601 1088.12 435.542 1089.34 435.044C1090.56 434.547 1091.57 433.642 1092.19 432.485C1092.81 431.327 1093.02 429.989 1092.76 428.699C1092.51 427.409 1091.81 426.247 1090.8 425.411C1089.78 424.576 1088.51 424.12 1087.19 424.12V424.12Z" fill="#FFD951"/>
<path d="M1360.04 305.105C1360.91 305.981 1362.03 306.578 1363.24 306.821C1364.45 307.063 1365.71 306.941 1366.85 306.469C1367.99 305.996 1368.97 305.195 1369.66 304.167C1370.35 303.14 1370.71 301.931 1370.71 300.694C1370.71 299.458 1370.35 298.249 1369.66 297.221C1368.97 296.193 1367.99 295.392 1366.85 294.92C1365.71 294.447 1364.45 294.325 1363.24 294.568C1362.03 294.81 1360.91 295.407 1360.04 296.283C1359.46 296.861 1359 297.549 1358.68 298.306C1358.37 299.063 1358.21 299.874 1358.21 300.694C1358.21 301.514 1358.37 302.326 1358.68 303.083C1359 303.84 1359.46 304.527 1360.04 305.105V305.105Z" fill="#FFD951"/>
<path d="M1364.44 307.555C1363.54 307.559 1362.64 307.384 1361.81 307.041C1360.98 306.698 1360.22 306.193 1359.59 305.555C1358.95 304.917 1358.44 304.159 1358.1 303.325C1357.75 302.491 1357.57 301.597 1357.57 300.694C1357.57 299.791 1357.75 298.897 1358.1 298.063C1358.44 297.229 1358.95 296.471 1359.59 295.833C1360.23 295.195 1360.98 294.688 1361.82 294.343C1362.65 293.997 1363.55 293.82 1364.45 293.82C1365.35 293.82 1366.25 293.997 1367.08 294.343C1367.91 294.688 1368.67 295.195 1369.31 295.833C1370.59 297.125 1371.31 298.873 1371.31 300.694C1371.31 302.515 1370.59 304.263 1369.31 305.555C1368.67 306.195 1367.91 306.701 1367.07 307.044C1366.24 307.387 1365.34 307.561 1364.44 307.555V307.555ZM1364.44 295.058C1363.7 295.058 1362.97 295.204 1362.29 295.487C1361.61 295.77 1360.99 296.184 1360.47 296.707C1359.95 297.229 1359.54 297.849 1359.26 298.532C1358.98 299.214 1358.83 299.944 1358.84 300.682C1358.83 301.418 1358.98 302.149 1359.25 302.83C1359.53 303.512 1359.94 304.133 1360.46 304.655V304.655C1361.54 305.681 1362.96 306.253 1364.45 306.253C1365.93 306.253 1367.36 305.681 1368.44 304.655C1369.48 303.598 1370.07 302.17 1370.07 300.682C1370.07 299.193 1369.48 297.765 1368.44 296.708C1367.37 295.656 1365.93 295.064 1364.44 295.058V295.058Z" fill="#FFD951"/>
<path d="M1371.81 385.581C1372.68 386.457 1373.8 387.054 1375.01 387.297C1376.22 387.539 1377.48 387.417 1378.62 386.944C1379.76 386.472 1380.74 385.671 1381.43 384.643C1382.12 383.615 1382.48 382.407 1382.48 381.17C1382.48 379.933 1382.12 378.725 1381.43 377.697C1380.74 376.669 1379.76 375.868 1378.62 375.396C1377.48 374.923 1376.22 374.801 1375.01 375.043C1373.8 375.286 1372.68 375.883 1371.81 376.759C1371.23 377.337 1370.77 378.024 1370.45 378.781C1370.14 379.538 1369.98 380.35 1369.98 381.17C1369.98 381.99 1370.14 382.802 1370.45 383.559C1370.77 384.316 1371.23 385.003 1371.81 385.581V385.581Z" fill="#FFD951"/>
<path d="M1376.23 388.03C1375.33 388.037 1374.43 387.863 1373.6 387.52C1372.76 387.177 1372 386.671 1371.36 386.031C1370.08 384.739 1369.36 382.991 1369.36 381.17C1369.36 379.348 1370.08 377.601 1371.36 376.309C1372.16 375.507 1373.14 374.915 1374.22 374.585C1375.3 374.254 1376.45 374.195 1377.56 374.414C1378.67 374.633 1379.71 375.122 1380.58 375.838C1381.46 376.554 1382.14 377.475 1382.58 378.519C1383.01 379.563 1383.18 380.698 1383.07 381.824C1382.96 382.949 1382.58 384.03 1381.95 384.971C1381.32 385.912 1380.47 386.683 1379.48 387.217C1378.48 387.751 1377.37 388.03 1376.23 388.03ZM1372.26 385.131C1373.33 386.155 1374.75 386.726 1376.23 386.726C1377.71 386.726 1379.14 386.155 1380.21 385.131C1380.73 384.611 1381.15 383.992 1381.43 383.31C1381.72 382.628 1381.86 381.896 1381.86 381.157C1381.85 379.668 1381.26 378.24 1380.21 377.184C1379.14 376.16 1377.71 375.589 1376.23 375.589C1374.75 375.589 1373.33 376.16 1372.26 377.184C1371.21 378.238 1370.62 379.667 1370.62 381.157C1370.62 382.648 1371.21 384.077 1372.26 385.131V385.131Z" fill="#FFD951"/>
<path d="M1122.28 256.073L1121.05 256.25L1123.15 270.996L1124.39 270.819L1122.28 256.073Z" fill="#FFD951"/>
<path d="M1325 934.516C1315.42 934.505 1305.84 933.996 1296.31 932.992L1296.43 931.742C1360.89 938.49 1414.12 922.895 1450.39 886.755C1541.46 795.683 1494.67 600.717 1346.12 452.161C1274.11 380.158 1189.21 329.698 1107.09 310.004C1024.96 290.31 955.61 303.831 911.523 347.893C873.285 386.131 857.84 445.363 867.987 514.343L866.762 514.517C856.54 445.013 872.11 385.531 910.649 347.068C955.035 302.681 1024.91 289.085 1107.39 308.829C1189.86 328.573 1274.84 379.158 1346.99 451.287C1496.05 600.342 1542.83 796.183 1451.26 887.655C1420.27 918.496 1376.98 934.516 1325 934.516Z" fill="#FFD951"/>
<path d="M1055.2 877C980.251 877 919.716 850.587 883.54 801.585C849.762 755.825 840.544 695.682 856.833 627.636L858.057 627.94C841.843 695.606 850.987 755.395 884.539 800.826C923.738 854.006 991.693 880.317 1075.86 875.075C1160.03 869.833 1250.7 833.57 1330.49 772.945C1495.38 647.87 1563.66 456.852 1482.67 347.149C1447.22 299.034 1249.1 282.253 1175 282V280.734C1249.5 280.987 1447.97 298.021 1483.67 346.389C1565.09 456.649 1496.71 648.478 1331.27 773.958C1251.15 834.735 1160.48 871.099 1075.96 876.341C1068.93 876.763 1062.01 876.983 1055.2 877Z" fill="#FFD951"/>
<path d="M1359.99 731.602C1299.48 731.602 1232.2 723.13 1163.87 706.609C1064.18 682.517 974.205 644.128 910.574 598.617C846.943 553.106 817.027 505.47 826.824 464.907C836.621 424.344 884.757 395.678 962.358 384.182C1039.96 372.685 1137.31 379.658 1237.05 403.726C1336.8 427.793 1426.74 466.207 1490.37 511.743C1554.01 557.279 1583.9 604.89 1574.1 645.428C1564.3 685.966 1516.17 714.657 1438.56 726.154C1412.54 729.891 1386.28 731.712 1359.99 731.602V731.602ZM1041.03 380.058C1014.8 379.936 988.601 381.732 962.633 385.431C885.556 396.878 837.796 425.219 828.124 465.232C818.452 505.245 848.118 552.281 911.374 597.692C974.63 643.104 1064.68 681.442 1164.25 705.485C1369.61 755.095 1552.96 727.978 1572.97 645.228C1582.65 605.24 1552.98 558.204 1489.72 512.768C1426.47 467.331 1336.4 429.018 1236.83 404.975C1168.5 388.405 1101.34 380.058 1041.03 380.058Z" fill="#FFD951"/>
<path d="M1285.69 972.405C1248.67 972.405 1206.93 941.664 1166.42 884.031C1120.44 818.526 1081.45 726.104 1056.75 623.784C1032.06 521.465 1024.51 421.345 1035.54 342.194C1046.56 263.043 1075.02 213.583 1115.51 203.786C1156 193.989 1203.79 224.73 1249.9 290.385C1296.01 356.04 1334.87 448.287 1359.56 550.631C1384.26 652.976 1391.8 753.07 1380.78 832.222C1369.76 911.373 1341.37 960.733 1300.96 970.73C1295.95 971.899 1290.82 972.461 1285.69 972.405V972.405ZM1130.73 203.236C1125.73 203.226 1120.75 203.813 1115.89 204.985C1075.9 214.658 1047.78 263.443 1036.81 342.444C1025.84 421.445 1033.31 521.39 1058 623.559C1082.7 725.729 1121.56 818.026 1167.47 883.481C1213.38 948.937 1260.52 979.252 1300.56 969.58C1383.43 949.411 1409.32 761.668 1358.44 550.856C1333.77 448.687 1294.88 356.415 1248.97 290.935C1208.71 233.802 1167.32 203.236 1130.71 203.236H1130.73Z" fill="#FFD951"/>
<path d="M1325 432.517C1324.12 433.389 1323.01 433.983 1321.8 434.223C1320.59 434.462 1319.33 434.338 1318.19 433.864C1317.05 433.391 1316.08 432.59 1315.39 431.563C1314.7 430.536 1314.34 429.328 1314.34 428.093C1314.34 426.858 1314.7 425.651 1315.39 424.624C1316.08 423.597 1317.05 422.796 1318.19 422.322C1319.33 421.849 1320.59 421.724 1321.8 421.964C1323.01 422.204 1324.12 422.797 1325 423.67C1326.16 424.848 1326.81 426.438 1326.81 428.093C1326.81 429.749 1326.16 431.338 1325 432.517V432.517Z" fill="#FFD951"/>
<path d="M1320.58 434.966C1319.67 434.97 1318.78 434.793 1317.95 434.445C1317.11 434.098 1316.36 433.587 1315.73 432.942C1315.09 432.305 1314.58 431.548 1314.23 430.714C1313.88 429.88 1313.7 428.985 1313.7 428.081C1313.7 427.177 1313.88 426.282 1314.23 425.448C1314.58 424.614 1315.09 423.856 1315.73 423.22C1316.36 422.579 1317.12 422.071 1317.95 421.728C1318.78 421.384 1319.68 421.212 1320.58 421.221C1321.48 421.216 1322.37 421.391 1323.2 421.734C1324.03 422.077 1324.79 422.582 1325.42 423.22C1326.38 424.184 1327.03 425.408 1327.29 426.739C1327.55 428.069 1327.41 429.447 1326.89 430.701C1326.38 431.954 1325.5 433.027 1324.38 433.786C1323.25 434.544 1321.93 434.955 1320.58 434.966V434.966ZM1320.58 422.47C1319.84 422.465 1319.1 422.609 1318.42 422.892C1317.74 423.175 1317.12 423.593 1316.6 424.12C1315.55 425.174 1314.96 426.603 1314.96 428.093C1314.96 429.584 1315.55 431.013 1316.6 432.067C1317.67 433.091 1319.1 433.662 1320.58 433.662C1322.06 433.662 1323.48 433.091 1324.55 432.067V432.067C1325.34 431.281 1325.87 430.279 1326.09 429.189C1326.3 428.099 1326.19 426.969 1325.77 425.942C1325.34 424.915 1324.62 424.037 1323.7 423.419C1322.77 422.801 1321.69 422.471 1320.58 422.47V422.47Z" fill="#FFD951"/>
<path d="M1047.73 303.431C1046.86 304.303 1045.74 304.897 1044.53 305.137C1043.32 305.376 1042.07 305.252 1040.92 304.778C1039.78 304.305 1038.81 303.504 1038.12 302.477C1037.44 301.45 1037.07 300.243 1037.07 299.007C1037.07 297.772 1037.44 296.565 1038.12 295.538C1038.81 294.511 1039.78 293.71 1040.92 293.236C1042.07 292.763 1043.32 292.638 1044.53 292.878C1045.74 293.118 1046.86 293.711 1047.73 294.584C1048.89 295.762 1049.55 297.352 1049.55 299.007C1049.55 300.663 1048.89 302.252 1047.73 303.431V303.431Z" fill="#FFD951"/>
<path d="M1043.31 305.93C1041.73 305.901 1040.2 305.326 1038.99 304.302C1037.78 303.278 1036.97 301.868 1036.68 300.311C1036.39 298.753 1036.65 297.144 1037.41 295.755C1038.17 294.366 1039.39 293.283 1040.86 292.688C1042.32 292.094 1043.95 292.024 1045.47 292.492C1046.98 292.96 1048.28 293.936 1049.16 295.255C1050.04 296.575 1050.43 298.156 1050.28 299.732C1050.12 301.309 1049.42 302.783 1048.31 303.906C1047.66 304.565 1046.88 305.085 1046.02 305.433C1045.16 305.781 1044.24 305.95 1043.31 305.93V305.93ZM1043.31 293.434C1042.57 293.431 1041.84 293.575 1041.16 293.858C1040.47 294.141 1039.85 294.558 1039.34 295.084C1038.28 296.138 1037.69 297.567 1037.69 299.057C1037.69 300.548 1038.28 301.977 1039.34 303.031C1040.41 304.055 1041.83 304.626 1043.31 304.626C1044.79 304.626 1046.21 304.055 1047.28 303.031C1048.07 302.245 1048.6 301.243 1048.82 300.153C1049.04 299.063 1048.93 297.933 1048.5 296.906C1048.07 295.879 1047.35 295.001 1046.43 294.383C1045.51 293.765 1044.42 293.435 1043.31 293.434Z" fill="#FFD951"/>
<path d="M1036.04 383.932C1035.16 384.804 1034.05 385.398 1032.84 385.637C1031.62 385.877 1030.37 385.753 1029.23 385.279C1028.09 384.806 1027.11 384.005 1026.43 382.978C1025.74 381.951 1025.38 380.743 1025.38 379.508C1025.38 378.273 1025.74 377.066 1026.43 376.038C1027.11 375.011 1028.09 374.21 1029.23 373.737C1030.37 373.264 1031.62 373.139 1032.84 373.379C1034.05 373.619 1035.16 374.212 1036.04 375.084C1037.2 376.263 1037.85 377.852 1037.85 379.508C1037.85 381.164 1037.2 382.753 1036.04 383.932V383.932Z" fill="#FFD951"/>
<path d="M1031.54 386.381C1029.95 386.386 1028.4 385.84 1027.17 384.835C1025.94 383.83 1025.09 382.428 1024.78 380.869C1024.46 379.311 1024.7 377.691 1025.44 376.286C1026.19 374.881 1027.4 373.778 1028.87 373.166C1030.33 372.553 1031.97 372.468 1033.49 372.926C1035.01 373.383 1036.33 374.355 1037.22 375.675C1038.11 376.995 1038.51 378.582 1038.36 380.165C1038.2 381.748 1037.51 383.229 1036.39 384.356C1035.75 384.999 1035 385.508 1034.17 385.856C1033.33 386.204 1032.44 386.382 1031.54 386.381ZM1031.54 373.885C1030.24 373.883 1028.98 374.333 1027.97 375.158C1026.96 375.983 1026.27 377.131 1026.02 378.406C1025.76 379.682 1025.96 381.007 1026.57 382.155C1027.18 383.303 1028.17 384.203 1029.38 384.702C1030.58 385.2 1031.92 385.267 1033.16 384.89C1034.41 384.513 1035.48 383.717 1036.21 382.635C1036.93 381.554 1037.26 380.255 1037.13 378.96C1037 377.666 1036.43 376.455 1035.51 375.534C1034.99 375.01 1034.37 374.594 1033.69 374.31C1033.01 374.027 1032.28 373.883 1031.54 373.885V373.885Z" fill="#FFD951"/>
<path d="M1076.2 682.292C1075.32 683.164 1074.21 683.757 1073 683.997C1071.79 684.237 1070.53 684.112 1069.39 683.639C1068.25 683.166 1067.28 682.365 1066.59 681.338C1065.9 680.31 1065.54 679.103 1065.54 677.868C1065.54 676.633 1065.9 675.426 1066.59 674.398C1067.28 673.371 1068.25 672.57 1069.39 672.097C1070.53 671.624 1071.79 671.499 1073 671.739C1074.21 671.979 1075.32 672.572 1076.2 673.444C1077.36 674.623 1078.01 676.212 1078.01 677.868C1078.01 679.524 1077.36 681.113 1076.2 682.292V682.292Z" fill="#FFD951"/>
<path d="M1071.78 684.741C1070.17 684.751 1068.62 684.204 1067.37 683.194C1066.13 682.183 1065.27 680.771 1064.95 679.2C1064.63 677.628 1064.86 675.995 1065.62 674.578C1066.37 673.16 1067.59 672.048 1069.07 671.43C1070.55 670.812 1072.19 670.727 1073.73 671.19C1075.27 671.652 1076.59 672.634 1077.48 673.966C1078.38 675.298 1078.78 676.899 1078.62 678.495C1078.47 680.091 1077.76 681.584 1076.63 682.717V682.717C1075.99 683.359 1075.24 683.869 1074.4 684.216C1073.57 684.564 1072.68 684.742 1071.78 684.741V684.741ZM1071.78 672.245C1071.04 672.24 1070.31 672.384 1069.62 672.667C1068.94 672.95 1068.32 673.368 1067.8 673.894C1066.81 674.96 1066.27 676.37 1066.29 677.827C1066.32 679.284 1066.91 680.674 1067.94 681.704C1068.97 682.735 1070.36 683.325 1071.82 683.35C1073.27 683.376 1074.68 682.835 1075.75 681.842C1076.54 681.056 1077.07 680.054 1077.29 678.964C1077.5 677.874 1077.39 676.744 1076.97 675.717C1076.54 674.69 1075.82 673.812 1074.9 673.194C1073.97 672.576 1072.89 672.246 1071.78 672.245V672.245Z" fill="#FFD951"/>
<path d="M877.459 417.772C876.586 418.647 875.473 419.244 874.26 419.487C873.048 419.73 871.791 419.607 870.648 419.135C869.505 418.662 868.528 417.862 867.84 416.834C867.153 415.806 866.786 414.597 866.786 413.36C866.786 412.124 867.153 410.915 867.84 409.887C868.528 408.859 869.505 408.058 870.648 407.586C871.791 407.114 873.048 406.991 874.26 407.234C875.473 407.476 876.586 408.073 877.459 408.949C878.627 410.12 879.282 411.707 879.282 413.36C879.282 415.014 878.627 416.6 877.459 417.772Z" fill="#FFD951"/>
<path d="M873.036 420.246C871.432 420.256 869.875 419.709 868.63 418.698C867.384 417.687 866.529 416.276 866.209 414.704C865.889 413.133 866.124 411.499 866.875 410.082C867.626 408.665 868.845 407.552 870.325 406.934C871.805 406.316 873.453 406.232 874.989 406.694C876.524 407.157 877.852 408.138 878.744 409.47C879.637 410.803 880.039 412.404 879.882 414C879.725 415.596 879.019 417.088 877.884 418.221C877.251 418.863 876.496 419.373 875.664 419.721C874.831 420.068 873.938 420.247 873.036 420.246V420.246ZM873.036 407.749C872.297 407.747 871.566 407.892 870.883 408.175C870.201 408.458 869.582 408.874 869.062 409.399C868.009 410.453 867.417 411.882 867.417 413.373C867.417 414.863 868.009 416.292 869.062 417.346C869.716 418.001 870.521 418.484 871.406 418.753C872.291 419.022 873.229 419.068 874.136 418.888C875.044 418.708 875.893 418.307 876.608 417.72C877.323 417.133 877.882 416.379 878.236 415.524C878.59 414.669 878.728 413.74 878.637 412.82C878.546 411.899 878.229 411.015 877.715 410.246C877.2 409.477 876.504 408.847 875.688 408.412C874.872 407.976 873.961 407.749 873.036 407.749V407.749Z" fill="#FFD951"/>
<circle cx="889.5" cy="572.5" r="61.5" fill="#FFF6D4"/>
<circle cx="889" cy="573" r="43" fill="#FFD951"/>
<mask id="mask0_6066_5068" style="mask-type:alpha" maskUnits="userSpaceOnUse" x="846" y="530" width="86" height="86">
<circle cx="889" cy="573" r="43" fill="#FFD951"/>
</mask>
<g mask="url(#mask0_6066_5068)">
<path d="M894 621.5L878.5 605.5L881.371 603.516L900.097 604.903L927.839 614.613L894 621.5Z" fill="#FFB801"/>
</g>
<path d="M894.004 555.915C894.004 558.096 892.236 559.863 890.056 559.863C887.875 559.863 886.107 558.096 886.107 555.915C886.107 553.735 887.875 551.967 890.056 551.967C892.236 551.967 894.004 553.735 894.004 555.915Z" fill="#FFB801"/>
<path fill-rule="evenodd" clip-rule="evenodd" d="M875.854 540.289C876.247 540.678 876.25 541.311 875.861 541.704C874.004 543.58 872.53 545.808 871.524 548.261C870.518 550.715 870 553.344 870 556C870 558.656 870.518 561.285 871.524 563.739C872.53 566.192 874.004 568.42 875.861 570.296C876.25 570.689 876.247 571.322 875.854 571.711C875.462 572.099 874.829 572.096 874.44 571.704C872.398 569.64 870.778 567.192 869.673 564.497C868.569 561.803 868 558.916 868 556C868 553.084 868.569 550.197 869.673 547.503C870.778 544.808 872.398 542.36 874.44 540.296C874.829 539.904 875.462 539.901 875.854 540.289ZM904.146 540.289C904.538 539.901 905.171 539.904 905.56 540.296C907.602 542.36 909.222 544.808 910.327 547.503C911.431 550.197 912 553.084 912 556C912 558.916 911.431 561.803 910.327 564.497C909.222 567.192 907.602 569.64 905.56 571.704C905.171 572.096 904.538 572.099 904.146 571.711C903.753 571.322 903.75 570.689 904.139 570.296C905.996 568.42 907.47 566.192 908.476 563.739C909.482 561.285 910 558.656 910 556C910 553.344 909.482 550.715 908.476 548.261C907.47 545.808 905.996 543.58 904.139 541.704C903.75 541.311 903.753 540.678 904.146 540.289ZM882.453 546.957C882.845 547.346 882.849 547.979 882.46 548.371C880.459 550.393 879.334 553.137 879.334 556C879.334 558.863 880.459 561.607 882.46 563.629C882.849 564.021 882.845 564.654 882.453 565.043C882.06 565.431 881.427 565.428 881.039 565.035C878.665 562.637 877.334 559.387 877.334 556C877.334 552.613 878.665 549.363 881.039 546.965C881.427 546.572 882.06 546.569 882.453 546.957ZM897.547 546.957C897.94 546.569 898.573 546.572 898.961 546.965C901.335 549.363 902.666 552.613 902.666 556C902.666 559.387 901.335 562.637 898.961 565.035C898.573 565.428 897.94 565.431 897.547 565.043C897.155 564.654 897.151 564.021 897.54 563.629C899.541 561.607 900.666 558.863 900.666 556C900.666 553.137 899.541 550.393 897.54 548.371C897.151 547.979 897.155 547.346 897.547 546.957Z" fill="white"/>
<path d="M878.272 605.333L889.328 560.24C889.414 559.891 889.93 559.961 889.919 560.32L888.513 609.559C888.507 609.77 888.289 609.909 888.094 609.826L878.445 605.68C878.311 605.622 878.238 605.476 878.272 605.333Z" fill="#FFF6D4"/>
<path d="M899.607 604.832L890.275 560.205C890.154 559.624 889.301 559.701 889.286 560.294L888.02 609.701C888.011 610.07 888.39 610.321 888.726 610.17L899.323 605.39C899.537 605.294 899.655 605.062 899.607 604.832Z" fill="#FFB801"/>
<circle cx="1134.5" cy="270.5" r="46.5" fill="#FFF6D4"/>
<circle cx="1134.5" cy="270.5" r="31.5" fill="#FFD951"/>
<mask id="mask1_6066_5068" style="mask-type:alpha" maskUnits="userSpaceOnUse" x="1103" y="239" width="63" height="63">
<circle cx="1134.5" cy="270.5" r="31.5" fill="#FFD951"/>
</mask>
<g mask="url(#mask1_6066_5068)">
<path d="M1148.84 309.171L1123.49 290.476V275.11H1144.49L1187 309.171H1148.84Z" fill="#FFB801"/>
</g>
<rect x="1122.46" y="249.756" width="23.561" height="40.9756" rx="2" fill="white"/>
<circle cx="1134.24" cy="287.658" r="1.02439" fill="#515151"/>
<rect x="1124.51" y="253.854" width="19.4634" height="30.7317" rx="1" fill="#FFD951"/>
<path d="M1132 252H1136" stroke="#515151" stroke-width="0.5" stroke-linecap="round"/>
<circle opacity="0.5" cx="1225" cy="542" r="107" fill="#FFEEB4"/>
<circle cx="1226.18" cy="541.605" r="81.3358" fill="#FFFCF0"/>
<mask id="mask2_6066_5068" style="mask-type:alpha" maskUnits="userSpaceOnUse" x="1176" y="491" width="100" height="101">
<circle cx="1225.95" cy="541.374" r="49.6795" fill="#FFD951"/>
</mask>
<g mask="url(#mask2_6066_5068)">
<circle cx="1226.12" cy="541.536" r="49.6795" fill="#FFD951"/>
<path d="M1278.47 565.91L1253.73 530.627L1241.97 547.254L1197.77 562.057V591.053L1283.74 604.031L1278.47 565.91Z" fill="#FFB801"/>
</g>
<path d="M1197.77 573.38V505.724C1197.77 504.695 1198.6 503.861 1199.63 503.861H1231.14C1232.7 503.861 1234.16 504.582 1235.11 505.813L1252.62 528.595C1253.29 529.469 1253.66 530.54 1253.66 531.642V573.38C1253.66 576.142 1251.42 578.38 1248.66 578.38H1202.77C1200.01 578.38 1197.77 576.142 1197.77 573.38Z" fill="white"/>
<path opacity="0.4" d="M1244.81 543.199L1253.73 562.617V566.315H1207.91V543.199H1244.81Z" fill="#D1D1D1"/>
<path opacity="0.4" d="M1204.26 566.315H1253.73V573.482C1253.73 576.243 1251.5 578.482 1248.73 578.482H1212.77L1204.26 566.315Z" fill="#D1D1D1"/>
<rect x="1204.23" y="542.983" width="40.9856" height="27.3237" rx="2" fill="#FFD951"/>
<path fill-rule="evenodd" clip-rule="evenodd" d="M1245.27 557.645H1204.29V555.645H1245.27V557.645Z" fill="#FFEEB4"/>
<path fill-rule="evenodd" clip-rule="evenodd" d="M1224.24 570.307L1224.24 542.983L1226.24 542.983L1226.24 570.307L1224.24 570.307Z" fill="#FFEEB4"/>
<path fill-rule="evenodd" clip-rule="evenodd" d="M1204.29 548.359H1214.13C1215.79 548.359 1217.13 549.702 1217.13 551.359V561.932C1217.13 563.588 1215.79 564.932 1214.13 564.932H1204.29V562.932H1214.13C1214.68 562.932 1215.13 562.484 1215.13 561.932V551.359C1215.13 550.807 1214.68 550.359 1214.13 550.359H1204.29V548.359Z" fill="#FFEEB4"/>
<path fill-rule="evenodd" clip-rule="evenodd" d="M1245.27 548.359H1235.43C1233.78 548.359 1232.43 549.702 1232.43 551.359V561.932C1232.43 563.588 1233.78 564.932 1235.43 564.932H1245.27V562.932H1235.43C1234.88 562.932 1234.43 562.484 1234.43 561.932V551.359C1234.43 550.807 1234.88 550.359 1235.43 550.359H1245.27V548.359Z" fill="#FFEEB4"/>
<path d="M1214.64 529.588C1214.64 529.161 1214.48 528.828 1214.18 528.59C1213.88 528.352 1213.35 528.105 1212.59 527.85C1211.83 527.595 1211.21 527.348 1210.73 527.11C1209.16 526.339 1208.37 525.28 1208.37 523.933C1208.37 523.262 1208.57 522.671 1208.96 522.161C1209.35 521.645 1209.91 521.246 1210.62 520.963C1211.34 520.675 1212.14 520.531 1213.03 520.531C1213.9 520.531 1214.68 520.686 1215.37 520.997C1216.06 521.307 1216.6 521.751 1216.98 522.327C1217.37 522.899 1217.56 523.553 1217.56 524.29H1214.65C1214.65 523.797 1214.49 523.414 1214.19 523.143C1213.89 522.871 1213.48 522.735 1212.97 522.735C1212.44 522.735 1212.03 522.851 1211.73 523.084C1211.43 523.312 1211.28 523.603 1211.28 523.958C1211.28 524.268 1211.44 524.551 1211.78 524.806C1212.11 525.055 1212.69 525.316 1213.53 525.588C1214.37 525.854 1215.06 526.142 1215.59 526.453C1216.9 527.207 1217.56 528.246 1217.56 529.571C1217.56 530.63 1217.16 531.462 1216.36 532.067C1215.56 532.671 1214.47 532.973 1213.07 532.973C1212.09 532.973 1211.2 532.798 1210.4 532.449C1209.61 532.094 1209.01 531.612 1208.61 531.002C1208.21 530.387 1208.01 529.68 1208.01 528.881H1210.94C1210.94 529.53 1211.1 530.009 1211.44 530.32C1211.77 530.625 1212.32 530.777 1213.07 530.777C1213.56 530.777 1213.94 530.675 1214.21 530.47C1214.5 530.259 1214.64 529.965 1214.64 529.588Z" fill="#515151"/>
<path d="M1223.87 532.807H1220.96V520.697H1223.87V532.807Z" fill="#515151"/>
<path d="M1231.43 520.697L1234.14 529.122L1236.83 520.697H1240.67V532.807H1237.75V529.979L1238.03 524.19L1235.1 532.807H1233.17L1230.24 524.182L1230.52 529.979V532.807H1227.6V520.697H1231.43Z" fill="#515151"/>
</g>
<defs>
<clipPath id="clip0_6066_5068">
<rect width="1440" height="672" fill="white"/>
</clipPath>
</defs>
</svg>
