<svg width="615" height="470" viewBox="0 0 615 470" fill="none" xmlns="http://www.w3.org/2000/svg">
<path d="M381.035 730.516C568.106 730.516 719.758 578.865 719.758 391.793C719.758 204.722 568.106 53.0703 381.035 53.0703C193.963 53.0703 42.3115 204.722 42.3115 391.793C42.3115 578.865 193.963 730.516 381.035 730.516Z" stroke="#FFD951" stroke-linecap="round" stroke-linejoin="round" stroke-dasharray="2 3"/>
<path d="M257.772 734.19C205.763 734.19 162.501 718.17 131.51 687.18C39.938 595.607 86.7239 399.766 235.754 250.811C307.932 178.658 393.032 128.048 475.382 108.354C557.732 88.6597 627.836 102.181 672.123 146.567C710.636 185.106 726.231 244.588 716.01 314.017L714.785 313.842C724.932 244.763 709.462 185.656 671.223 147.417C627.161 103.33 557.707 89.9343 475.682 109.528C393.657 129.123 308.657 179.657 236.654 251.661C88.0735 400.241 41.3126 595.207 132.385 686.255C168.649 722.519 221.883 738.114 286.339 731.366L286.464 732.616C276.934 733.637 267.357 734.163 257.772 734.19V734.19Z" fill="#FFD951"/>
<path d="M527.04 676.808C441.166 676.808 340.996 642.468 251.223 575.288C85.6976 451.426 17.2932 262.133 98.7687 153.315C134.483 105.58 195.215 79.1376 269.742 78.8877V80.1373C195.615 80.3872 135.258 106.629 99.7934 154.065C18.7928 262.332 87.0722 450.851 252.048 574.289C417.023 697.726 617.138 710.073 698.163 601.78C731.703 556.919 740.876 497.912 724.655 431.132L725.88 430.832C742.175 498.012 732.928 557.369 699.163 602.505C661.824 652.34 599.518 676.783 527.04 676.808Z" fill="#FFD951"/>
<path d="M222.785 531.301C196.488 531.427 170.217 529.622 144.184 525.903C66.707 514.381 18.4466 485.715 8.6495 445.177C-1.14755 404.64 28.6435 357.129 92.3993 311.468C156.155 265.806 246.028 227.518 345.723 203.425C445.418 179.332 542.989 172.384 620.39 183.881C697.792 195.377 746.153 224.044 755.95 264.607C765.747 305.169 735.956 352.63 672.2 398.291C608.444 443.953 518.596 482.216 418.876 506.309C350.572 522.804 283.267 531.301 222.785 531.301ZM541.914 179.807C482.832 179.807 415.702 187.805 345.998 204.65C246.453 228.692 156.63 266.981 93.1241 312.442C29.6182 357.904 0.202058 404.914 9.87415 444.902C19.5462 484.89 67.3568 513.257 144.384 524.678C221.41 536.1 319.031 529.202 418.576 505.159L418.726 505.759L418.576 505.159C623.939 455.549 774.744 347.707 754.725 264.957C741.504 210.173 656.979 179.807 541.914 179.807Z" fill="#FFD951"/>
<path d="M297.06 772.079C292.009 772.069 286.977 771.474 282.064 770.305C241.501 760.507 213.085 711.347 202.088 631.871C191.092 552.395 198.589 452.625 223.307 350.281C248.025 247.937 286.963 155.539 332.974 90.0592C378.985 24.5789 426.796 -6.36182 467.358 3.43523C507.921 13.2323 536.338 62.3925 547.334 141.844C558.331 221.295 550.808 321.115 526.091 423.459C501.373 525.803 462.335 618.2 416.324 683.756C375.836 741.238 334.099 772.079 297.06 772.079ZM452.163 2.91039C371.587 2.91039 272.217 152.091 224.332 350.581C173.547 561.292 199.389 749.061 282.239 769.08C322.227 778.752 369.513 748.161 415.299 682.956C461.085 617.75 500.099 525.328 524.791 423.034L525.391 423.184L524.791 423.034C575.701 212.272 549.784 24.5289 466.884 4.5349C462.059 3.40796 457.117 2.86257 452.163 2.91039Z" fill="#FFD951"/>
<path d="M111.066 430.907C111.939 431.783 113.053 432.38 114.265 432.622C115.478 432.865 116.735 432.742 117.878 432.27C119.021 431.798 119.998 430.997 120.685 429.969C121.372 428.941 121.739 427.732 121.739 426.496C121.739 425.259 121.372 424.05 120.685 423.022C119.998 421.994 119.021 421.194 117.878 420.721C116.735 420.249 115.478 420.126 114.265 420.369C113.053 420.612 111.939 421.209 111.066 422.085C109.899 423.256 109.243 424.842 109.243 426.496C109.243 428.149 109.899 429.736 111.066 430.907V430.907Z" fill="#FFD951"/>
<path d="M115.464 433.356C113.874 433.355 112.332 432.803 111.103 431.793C109.874 430.783 109.033 429.378 108.725 427.817C108.416 426.257 108.658 424.638 109.409 423.235C110.161 421.833 111.376 420.736 112.847 420.129C114.317 419.523 115.953 419.445 117.474 419.91C118.996 420.374 120.309 421.353 121.19 422.677C122.071 424.002 122.465 425.591 122.305 427.174C122.145 428.757 121.441 430.235 120.313 431.357C119.025 432.638 117.281 433.357 115.464 433.356V433.356ZM115.464 420.86C114.17 420.867 112.917 421.322 111.921 422.149C110.924 422.976 110.245 424.122 109.999 425.393C109.752 426.665 109.954 427.982 110.57 429.121C111.186 430.26 112.178 431.15 113.376 431.64C114.575 432.13 115.906 432.189 117.144 431.808C118.381 431.427 119.448 430.628 120.163 429.549C120.877 428.469 121.196 427.175 121.064 425.887C120.932 424.599 120.357 423.396 119.438 422.484C118.375 421.45 116.948 420.875 115.464 420.885V420.86Z" fill="#FFD951"/>
<path d="M68.8549 331.787C69.7293 332.659 70.8426 333.252 72.0542 333.492C73.2658 333.732 74.5213 333.607 75.6621 333.134C76.8028 332.66 77.7777 331.86 78.4636 330.833C79.1494 329.805 79.5155 328.598 79.5155 327.363C79.5155 326.128 79.1494 324.92 78.4636 323.893C77.7777 322.866 76.8028 322.065 75.6621 321.592C74.5213 321.119 73.2658 320.994 72.0542 321.234C70.8426 321.473 69.7293 322.067 68.8549 322.939C68.27 323.518 67.8057 324.207 67.4888 324.966C67.1719 325.725 67.0088 326.54 67.0088 327.363C67.0088 328.186 67.1719 329 67.4888 329.76C67.8057 330.519 68.27 331.208 68.8549 331.787V331.787Z" fill="#FFD951"/>
<path d="M73.253 334.236C71.4372 334.231 69.6959 333.513 68.4045 332.236C67.4436 331.275 66.7893 330.05 66.5244 328.717C66.2595 327.384 66.3958 326.002 66.9161 324.747C67.4363 323.491 68.3173 322.418 69.4474 321.663C70.5776 320.908 71.9063 320.505 73.2655 320.505C74.6247 320.505 75.9534 320.908 77.0836 321.663C78.2138 322.418 79.0947 323.491 79.6149 324.747C80.1352 326.002 80.2715 327.384 80.0066 328.717C79.7417 330.05 79.0874 331.275 78.1265 332.236C76.829 333.519 75.0775 334.237 73.253 334.236V334.236ZM69.2792 331.362C70.0654 332.149 71.0673 332.685 72.1583 332.903C73.2493 333.12 74.3803 333.009 75.4083 332.584C76.4362 332.158 77.3149 331.438 77.9331 330.513C78.5513 329.588 78.8813 328.5 78.8813 327.388C78.8813 326.275 78.5513 325.188 77.9331 324.263C77.3149 323.338 76.4362 322.617 75.4083 322.192C74.3803 321.766 73.2493 321.656 72.1583 321.873C71.0673 322.091 70.0654 322.627 69.2792 323.414C68.2261 324.468 67.6346 325.898 67.6346 327.388C67.6346 328.878 68.2261 330.307 69.2792 331.362V331.362Z" fill="#FFD951"/>
<path d="M257.773 232.166C258.646 233.042 259.76 233.639 260.972 233.882C262.185 234.124 263.442 234.002 264.585 233.53C265.728 233.057 266.705 232.256 267.392 231.228C268.08 230.201 268.447 228.992 268.447 227.755C268.447 226.519 268.08 225.31 267.392 224.282C266.705 223.254 265.728 222.453 264.585 221.981C263.442 221.508 262.185 221.386 260.972 221.629C259.76 221.871 258.646 222.468 257.773 223.344C257.192 223.922 256.731 224.61 256.417 225.367C256.102 226.124 255.94 226.935 255.94 227.755C255.94 228.575 256.102 229.387 256.417 230.144C256.731 230.901 257.192 231.588 257.773 232.166V232.166Z" fill="#FFD951"/>
<path d="M262.194 234.616C261.063 234.62 259.947 234.344 258.948 233.813C257.948 233.282 257.095 232.512 256.464 231.572C255.834 230.632 255.445 229.551 255.333 228.425C255.22 227.299 255.388 226.162 255.821 225.116C256.253 224.07 256.938 223.147 257.813 222.429C258.688 221.711 259.727 221.221 260.837 221.001C261.947 220.781 263.095 220.839 264.178 221.169C265.26 221.5 266.244 222.092 267.043 222.894C268 223.856 268.651 225.078 268.914 226.408C269.177 227.739 269.041 229.117 268.523 230.37C268.004 231.623 267.127 232.695 266.001 233.45C264.875 234.206 263.55 234.611 262.194 234.616V234.616ZM262.194 222.12C261.457 222.113 260.726 222.253 260.044 222.532C259.362 222.811 258.742 223.223 258.221 223.744C257.282 224.665 256.693 225.884 256.553 227.191C256.414 228.498 256.733 229.814 257.456 230.912C258.179 232.01 259.26 232.823 260.516 233.212C261.772 233.601 263.124 233.542 264.342 233.044C265.559 232.547 266.565 231.642 267.189 230.485C267.813 229.327 268.015 227.989 267.762 226.699C267.508 225.409 266.814 224.247 265.799 223.411C264.783 222.576 263.509 222.12 262.194 222.12V222.12Z" fill="#FFD951"/>
<path d="M535.039 103.105C535.912 103.981 537.025 104.578 538.238 104.821C539.45 105.063 540.708 104.941 541.851 104.469C542.993 103.996 543.97 103.195 544.658 102.167C545.345 101.14 545.712 99.9308 545.712 98.6942C545.712 97.4576 545.345 96.2488 544.658 95.2209C543.97 94.1929 542.993 93.3921 541.851 92.9198C540.708 92.4474 539.45 92.3249 538.238 92.5675C537.025 92.8102 535.912 93.4072 535.039 94.283C534.458 94.8613 533.997 95.5486 533.682 96.3056C533.368 97.0626 533.206 97.8744 533.206 98.6942C533.206 99.514 533.368 100.326 533.682 101.083C533.997 101.84 534.458 102.527 535.039 103.105V103.105Z" fill="#FFD951"/>
<path d="M539.436 105.555C538.536 105.559 537.644 105.384 536.811 105.041C535.979 104.698 535.223 104.193 534.588 103.555C533.949 102.917 533.443 102.159 533.098 101.325C532.752 100.491 532.574 99.5969 532.574 98.6941C532.574 97.7913 532.752 96.8974 533.098 96.0633C533.443 95.2293 533.949 94.4714 534.588 93.8331C535.226 93.1947 535.984 92.6883 536.818 92.3429C537.652 91.9974 538.546 91.8196 539.449 91.8196C540.352 91.8196 541.246 91.9974 542.08 92.3429C542.914 92.6883 543.671 93.1947 544.31 93.8331C545.593 95.1253 546.314 96.8728 546.314 98.6941C546.314 100.515 545.593 102.263 544.31 103.555C543.671 104.195 542.91 104.701 542.074 105.044C541.237 105.387 540.341 105.561 539.436 105.555V105.555ZM539.436 93.0583C538.699 93.0583 537.969 93.2039 537.288 93.4868C536.607 93.7697 535.989 94.1844 535.469 94.7069C534.949 95.2294 534.537 95.8495 534.257 96.5316C533.977 97.2137 533.835 97.9443 533.838 98.6816C533.834 99.4183 533.975 100.149 534.254 100.83C534.533 101.512 534.944 102.133 535.462 102.655V102.655C536.536 103.681 537.964 104.253 539.449 104.253C540.933 104.253 542.361 103.681 543.435 102.655C544.482 101.598 545.069 100.17 545.069 98.6816C545.069 97.1934 544.482 95.7654 543.435 94.7078C542.369 93.656 540.934 93.0639 539.436 93.0583V93.0583Z" fill="#FFD951"/>
<path d="M546.811 183.581C547.684 184.457 548.797 185.054 550.009 185.297C551.222 185.539 552.479 185.417 553.622 184.944C554.765 184.472 555.742 183.671 556.429 182.643C557.117 181.615 557.484 180.407 557.484 179.17C557.484 177.933 557.117 176.725 556.429 175.697C555.742 174.669 554.765 173.868 553.622 173.396C552.479 172.923 551.222 172.801 550.009 173.043C548.797 173.286 547.684 173.883 546.811 174.759C546.229 175.337 545.768 176.024 545.454 176.781C545.139 177.538 544.977 178.35 544.977 179.17C544.977 179.99 545.139 180.802 545.454 181.559C545.768 182.316 546.229 183.003 546.811 183.581V183.581Z" fill="#FFD951"/>
<path d="M551.234 186.03C550.33 186.037 549.433 185.863 548.597 185.52C547.76 185.177 547 184.671 546.361 184.031C545.077 182.739 544.357 180.991 544.357 179.17C544.357 177.348 545.077 175.601 546.361 174.309C547.159 173.507 548.142 172.915 549.223 172.585C550.305 172.254 551.451 172.195 552.561 172.414C553.67 172.633 554.709 173.122 555.584 173.838C556.459 174.554 557.144 175.475 557.578 176.519C558.012 177.563 558.182 178.698 558.073 179.824C557.963 180.949 557.577 182.03 556.95 182.971C556.322 183.912 555.473 184.683 554.476 185.217C553.479 185.751 552.365 186.03 551.234 186.03ZM547.261 183.131C548.33 184.155 549.754 184.726 551.234 184.726C552.715 184.726 554.138 184.155 555.208 183.131C555.733 182.611 556.149 181.992 556.432 181.31C556.715 180.628 556.86 179.896 556.858 179.157C556.851 177.668 556.258 176.24 555.208 175.184C554.138 174.16 552.715 173.589 551.234 173.589C549.754 173.589 548.33 174.16 547.261 175.184C546.208 176.238 545.616 177.667 545.616 179.157C545.616 180.648 546.208 182.077 547.261 183.131V183.131Z" fill="#FFD951"/>
<path d="M297.283 54.0733L296.046 54.25L298.152 68.9958L299.389 68.8191L297.283 54.0733Z" fill="#FFD951"/>
<path d="M499.999 732.516C490.415 732.505 480.839 731.996 471.308 730.992L471.433 729.742C535.888 736.49 589.122 720.895 625.386 684.755C716.459 593.683 669.673 398.717 521.118 250.161C449.114 178.158 364.215 127.698 282.09 108.004C199.964 88.3099 130.61 101.831 86.5234 145.893C48.2849 184.131 32.8396 243.363 42.9865 312.343L41.7619 312.517C31.5399 243.013 47.1103 183.531 85.6487 145.068C130.035 100.681 199.914 87.0853 282.389 106.829C364.865 126.573 449.839 177.158 521.992 249.287C671.048 398.342 717.833 594.183 626.261 685.655C595.27 716.496 551.983 732.516 499.999 732.516Z" fill="#FFD951"/>
<path d="M230.201 675C155.251 675 94.716 648.587 58.54 599.585C24.7625 553.825 15.5436 493.682 31.8328 425.636L33.0569 425.94C16.8427 493.606 25.9867 553.395 59.5394 598.826C98.7383 652.006 166.693 678.317 250.862 673.075C335.031 667.833 425.696 631.57 505.493 570.945C670.384 445.87 738.663 254.852 657.667 145.149C622.216 97.0336 424.101 80.2534 350 80.0001V78.7339C424.501 78.9872 622.965 96.0206 658.666 144.389C740.087 254.649 671.708 446.478 506.268 571.958C426.146 632.735 335.481 669.099 250.962 674.341C243.934 674.763 237.013 674.983 230.201 675Z" fill="#FFD951"/>
<path d="M534.989 529.602C474.482 529.602 407.202 521.13 338.873 504.609C239.178 480.517 149.205 442.128 85.5739 396.617C21.943 351.106 -7.97296 303.47 1.82409 262.907C11.6211 222.344 59.7567 193.678 137.358 182.182C214.96 170.685 312.306 177.658 412.051 201.726C511.796 225.793 601.744 264.207 665.374 309.743C729.005 355.279 758.896 402.89 749.099 443.428C739.302 483.966 691.167 512.657 613.565 524.154C587.542 527.891 561.279 529.712 534.989 529.602V529.602ZM216.035 178.058C189.805 177.936 163.601 179.732 137.633 183.431C60.5564 194.878 12.7958 223.219 3.12369 263.232C-6.5484 303.245 23.1177 350.281 86.3736 395.692C149.63 441.104 239.677 479.442 339.248 503.485C544.611 553.095 727.956 525.978 747.974 443.228C757.647 403.24 727.981 356.204 664.725 310.768C601.469 265.331 511.396 227.018 411.826 202.975C343.496 186.405 276.341 178.058 216.035 178.058Z" fill="#FFD951"/>
<path d="M460.686 770.405C423.672 770.405 381.934 739.664 341.422 682.031C295.435 616.526 256.447 524.104 231.755 421.784C207.062 319.465 199.514 219.345 210.536 140.194C221.558 61.043 250.024 11.5829 290.512 1.78584C331 -8.01121 378.785 22.7295 424.897 88.3848C471.008 154.04 509.871 246.287 534.564 348.631C559.256 450.976 566.804 551.07 555.782 630.222C544.76 709.373 516.369 758.733 475.956 768.73C470.952 769.899 465.825 770.461 460.686 770.405V770.405ZM305.732 1.23601C300.732 1.2261 295.748 1.81342 290.887 2.98549C250.899 12.6576 222.782 61.4429 211.811 140.444C200.839 219.445 208.312 319.39 233.004 421.559C257.697 523.729 296.56 616.026 342.471 681.481C388.383 746.937 435.518 777.252 475.556 767.58C558.431 747.411 584.324 559.668 533.439 348.856C508.771 246.687 469.883 154.415 423.972 88.9346C383.709 31.8018 342.321 1.23601 305.707 1.23601H305.732Z" fill="#FFD951"/>
<path d="M499.999 230.517C499.125 231.389 498.011 231.983 496.8 232.223C495.588 232.462 494.333 232.338 493.192 231.864C492.051 231.391 491.076 230.59 490.39 229.563C489.704 228.536 489.338 227.328 489.338 226.093C489.338 224.858 489.704 223.651 490.39 222.624C491.076 221.597 492.051 220.796 493.192 220.322C494.333 219.849 495.588 219.724 496.8 219.964C498.011 220.204 499.125 220.797 499.999 221.67C501.162 222.848 501.814 224.438 501.814 226.093C501.814 227.749 501.162 229.338 499.999 230.517V230.517Z" fill="#FFD951"/>
<path d="M495.576 232.966C494.674 232.97 493.78 232.793 492.947 232.445C492.114 232.098 491.359 231.587 490.728 230.942C490.086 230.305 489.577 229.548 489.229 228.714C488.882 227.88 488.703 226.985 488.703 226.081C488.703 225.177 488.882 224.282 489.229 223.448C489.577 222.614 490.086 221.856 490.728 221.22C491.361 220.579 492.116 220.071 492.949 219.728C493.782 219.384 494.675 219.212 495.576 219.221C496.477 219.216 497.369 219.391 498.201 219.734C499.033 220.077 499.789 220.582 500.425 221.22C501.378 222.184 502.026 223.408 502.287 224.739C502.549 226.069 502.412 227.447 501.895 228.701C501.377 229.954 500.502 231.027 499.378 231.786C498.255 232.544 496.932 232.955 495.576 232.966V232.966ZM495.576 220.47C494.837 220.465 494.105 220.609 493.422 220.892C492.74 221.175 492.121 221.593 491.602 222.12C490.549 223.174 489.958 224.603 489.958 226.093C489.958 227.584 490.549 229.013 491.602 230.067C492.672 231.091 494.096 231.662 495.576 231.662C497.057 231.662 498.48 231.091 499.55 230.067V230.067C500.336 229.281 500.87 228.279 501.087 227.189C501.303 226.099 501.192 224.969 500.767 223.942C500.342 222.915 499.622 222.037 498.698 221.419C497.774 220.801 496.688 220.471 495.576 220.47V220.47Z" fill="#FFD951"/>
<path d="M222.732 101.431C221.857 102.303 220.744 102.897 219.533 103.137C218.321 103.376 217.065 103.252 215.925 102.778C214.784 102.305 213.809 101.504 213.123 100.477C212.437 99.4499 212.071 98.2425 212.071 97.0074C212.071 95.7723 212.437 94.5649 213.123 93.5378C213.809 92.5106 214.784 91.7098 215.925 91.2364C217.065 90.763 218.321 90.6384 219.533 90.8782C220.744 91.118 221.857 91.7115 222.732 92.5837C223.895 93.7624 224.547 95.3516 224.547 97.0074C224.547 98.6632 223.895 100.252 222.732 101.431V101.431Z" fill="#FFD951"/>
<path d="M218.309 103.93C216.726 103.901 215.201 103.326 213.992 102.302C212.784 101.278 211.966 99.8682 211.678 98.3108C211.389 96.7534 211.647 95.1441 212.408 93.7551C213.17 92.3661 214.387 91.2827 215.855 90.6882C217.324 90.0936 218.952 90.0243 220.465 90.4921C221.978 90.9599 223.284 91.936 224.16 93.2553C225.037 94.5746 225.431 96.1562 225.275 97.7325C225.12 99.3087 224.425 100.783 223.308 101.906C222.656 102.565 221.876 103.085 221.017 103.433C220.158 103.781 219.236 103.95 218.309 103.93V103.93ZM218.309 91.434C217.57 91.4305 216.838 91.5746 216.156 91.8579C215.474 92.1411 214.855 92.5579 214.336 93.0835C213.282 94.1379 212.691 95.5671 212.691 97.0573C212.691 98.5475 213.282 99.9767 214.336 101.031C215.405 102.055 216.829 102.626 218.309 102.626C219.79 102.626 221.213 102.055 222.283 101.031C223.069 100.245 223.603 99.2432 223.82 98.153C224.036 97.0629 223.925 95.933 223.5 94.906C223.075 93.8791 222.355 93.0013 221.431 92.3833C220.507 91.7653 219.421 91.435 218.309 91.434Z" fill="#FFD951"/>
<path d="M211.036 181.932C210.161 182.804 209.048 183.398 207.836 183.637C206.625 183.877 205.369 183.753 204.228 183.279C203.088 182.806 202.113 182.005 201.427 180.978C200.741 179.951 200.375 178.743 200.375 177.508C200.375 176.273 200.741 175.066 201.427 174.038C202.113 173.011 203.088 172.21 204.228 171.737C205.369 171.264 206.625 171.139 207.836 171.379C209.048 171.619 210.161 172.212 211.036 173.084C212.199 174.263 212.851 175.852 212.851 177.508C212.851 179.164 212.199 180.753 211.036 181.932V181.932Z" fill="#FFD951"/>
<path d="M206.537 184.381C204.947 184.386 203.404 183.84 202.171 182.835C200.939 181.83 200.093 180.428 199.778 178.869C199.463 177.311 199.698 175.691 200.444 174.286C201.189 172.881 202.399 171.778 203.866 171.166C205.334 170.553 206.969 170.468 208.492 170.926C210.015 171.383 211.332 172.355 212.219 173.675C213.106 174.995 213.508 176.582 213.356 178.165C213.204 179.748 212.508 181.229 211.386 182.356C210.752 182.999 209.997 183.508 209.165 183.856C208.333 184.204 207.439 184.382 206.537 184.381ZM206.537 171.885C205.236 171.883 203.975 172.333 202.969 173.158C201.962 173.983 201.273 175.131 201.018 176.406C200.763 177.682 200.958 179.007 201.571 180.155C202.183 181.303 203.175 182.203 204.376 182.702C205.578 183.2 206.916 183.267 208.161 182.89C209.406 182.513 210.482 181.717 211.206 180.635C211.929 179.554 212.256 178.255 212.129 176.96C212.002 175.666 211.43 174.455 210.511 173.534C209.991 173.01 209.372 172.594 208.69 172.31C208.008 172.027 207.276 171.883 206.537 171.885V171.885Z" fill="#FFD951"/>
<path d="M251.198 480.292C250.324 481.164 249.21 481.757 247.999 481.997C246.787 482.237 245.532 482.112 244.391 481.639C243.25 481.166 242.275 480.365 241.589 479.338C240.904 478.31 240.538 477.103 240.538 475.868C240.538 474.633 240.904 473.426 241.589 472.398C242.275 471.371 243.25 470.57 244.391 470.097C245.532 469.624 246.787 469.499 247.999 469.739C249.21 469.979 250.324 470.572 251.198 471.444C252.361 472.623 253.013 474.212 253.013 475.868C253.013 477.524 252.361 479.113 251.198 480.292V480.292Z" fill="#FFD951"/>
<path d="M246.777 482.741C245.173 482.751 243.615 482.204 242.37 481.194C241.125 480.183 240.269 478.771 239.949 477.2C239.629 475.628 239.865 473.995 240.616 472.578C241.366 471.16 242.586 470.048 244.066 469.43C245.546 468.812 247.194 468.727 248.73 469.19C250.265 469.652 251.593 470.634 252.485 471.966C253.377 473.298 253.78 474.899 253.623 476.495C253.466 478.091 252.76 479.584 251.625 480.717V480.717C250.992 481.359 250.237 481.869 249.404 482.216C248.572 482.564 247.679 482.742 246.777 482.741V482.741ZM246.777 470.245C246.038 470.24 245.305 470.384 244.622 470.667C243.94 470.95 243.321 471.368 242.803 471.894C241.809 472.96 241.269 474.37 241.294 475.827C241.32 477.284 241.91 478.674 242.941 479.704C243.971 480.735 245.361 481.325 246.818 481.35C248.274 481.376 249.684 480.835 250.75 479.842C251.536 479.056 252.071 478.054 252.287 476.964C252.504 475.874 252.392 474.744 251.967 473.717C251.542 472.69 250.822 471.812 249.898 471.194C248.974 470.576 247.888 470.246 246.777 470.245V470.245Z" fill="#FFD951"/>
<path d="M52.4592 215.772C51.5862 216.647 50.4729 217.244 49.2604 217.487C48.0478 217.73 46.7905 217.607 45.6477 217.135C44.5049 216.662 43.5279 215.862 42.8405 214.834C42.1531 213.806 41.7861 212.597 41.7861 211.36C41.7861 210.124 42.1531 208.915 42.8405 207.887C43.5279 206.859 44.5049 206.058 45.6477 205.586C46.7905 205.114 48.0478 204.991 49.2604 205.234C50.4729 205.476 51.5862 206.073 52.4592 206.949C53.6268 208.12 54.2824 209.707 54.2824 211.36C54.2824 213.014 53.6268 214.6 52.4592 215.772Z" fill="#FFD951"/>
<path d="M48.0358 218.246C46.4321 218.256 44.8747 217.709 43.6295 216.698C42.3843 215.687 41.5286 214.276 41.2086 212.704C40.8886 211.133 41.124 209.499 41.8748 208.082C42.6256 206.665 43.845 205.552 45.3249 204.934C46.8048 204.316 48.4533 204.232 49.9889 204.694C51.5245 205.157 52.8518 206.138 53.7443 207.47C54.6367 208.803 55.0388 210.404 54.882 212C54.7252 213.596 54.0191 215.088 52.8844 216.221C52.2509 216.863 51.496 217.373 50.6636 217.721C49.8312 218.068 48.9379 218.247 48.0358 218.246V218.246ZM48.0358 205.749C47.2972 205.747 46.5655 205.892 45.8833 206.175C45.2011 206.458 44.582 206.874 44.062 207.399C43.009 208.453 42.4175 209.882 42.4175 211.373C42.4175 212.863 43.009 214.292 44.062 215.346C44.7158 216.001 45.5209 216.484 46.4061 216.753C47.2912 217.022 48.2291 217.068 49.1365 216.888C50.0439 216.708 50.8927 216.307 51.6079 215.72C52.3231 215.133 52.8824 214.379 53.2363 213.524C53.5902 212.669 53.7278 211.74 53.6368 210.82C53.5458 209.899 53.2292 209.015 52.7148 208.246C52.2004 207.477 51.5043 206.847 50.6881 206.412C49.872 205.976 48.9609 205.749 48.0358 205.749V205.749Z" fill="#FFD951"/>
<circle cx="64.5" cy="370.5" r="61.5" fill="#FFF6D4"/>
<circle cx="64" cy="371" r="43" fill="#FFD951"/>
<mask id="mask0_6066_5075" style="mask-type:alpha" maskUnits="userSpaceOnUse" x="21" y="328" width="86" height="86">
<circle cx="64" cy="371" r="43" fill="#FFD951"/>
</mask>
<g mask="url(#mask0_6066_5075)">
<path d="M69 419.5L53.5 403.5L56.3711 401.516L75.0969 402.903L102.839 412.613L69 419.5Z" fill="#FFB801"/>
</g>
<path d="M69.0037 353.915C69.0037 356.096 67.2361 357.863 65.0556 357.863C62.8751 357.863 61.1074 356.096 61.1074 353.915C61.1074 351.735 62.8751 349.967 65.0556 349.967C67.2361 349.967 69.0037 351.735 69.0037 353.915Z" fill="#FFB801"/>
<path fill-rule="evenodd" clip-rule="evenodd" d="M50.8543 338.289C51.2468 338.678 51.25 339.311 50.8615 339.704C49.0038 341.58 47.5297 343.808 46.5238 346.261C45.5179 348.715 45 351.344 45 354C45 356.656 45.5179 359.285 46.5238 361.739C47.5297 364.192 49.0038 366.42 50.8615 368.296C51.25 368.689 51.2468 369.322 50.8543 369.711C50.4618 370.099 49.8287 370.096 49.4401 369.704C47.3977 367.64 45.7781 365.192 44.6733 362.497C43.5685 359.803 43 356.916 43 354C43 351.084 43.5685 348.197 44.6733 345.503C45.7781 342.808 47.3977 340.36 49.4401 338.296C49.8287 337.904 50.4618 337.901 50.8543 338.289ZM79.1457 338.289C79.5382 337.901 80.1713 337.904 80.5599 338.296C82.6023 340.36 84.2219 342.808 85.3267 345.503C86.4315 348.197 87 351.084 87 354C87 356.916 86.4315 359.803 85.3267 362.497C84.2219 365.192 82.6023 367.64 80.5599 369.704C80.1713 370.096 79.5382 370.099 79.1457 369.711C78.7532 369.322 78.75 368.689 79.1385 368.296C80.9962 366.42 82.4703 364.192 83.4762 361.739C84.4821 359.285 85 356.656 85 354C85 351.344 84.4821 348.715 83.4762 346.261C82.4703 343.808 80.9962 341.58 79.1385 339.704C78.75 339.311 78.7532 338.678 79.1457 338.289ZM57.4528 344.957C57.8454 345.346 57.8487 345.979 57.4602 346.371C55.4594 348.393 54.3336 351.137 54.3336 354C54.3336 356.863 55.4594 359.607 57.4602 361.629C57.8487 362.021 57.8454 362.654 57.4528 363.043C57.0603 363.431 56.4271 363.428 56.0386 363.035C53.6651 360.637 52.3336 357.387 52.3336 354C52.3336 350.613 53.6651 347.363 56.0386 344.965C56.4271 344.572 57.0603 344.569 57.4528 344.957ZM72.5472 344.957C72.9397 344.569 73.5729 344.572 73.9614 344.965C76.3349 347.363 77.6664 350.613 77.6664 354C77.6664 357.387 76.3349 360.637 73.9614 363.035C73.5729 363.428 72.9397 363.431 72.5472 363.043C72.1546 362.654 72.1513 362.021 72.5398 361.629C74.5406 359.607 75.6664 356.863 75.6664 354C75.6664 351.137 74.5406 348.393 72.5398 346.371C72.1513 345.979 72.1546 345.346 72.5472 344.957Z" fill="white"/>
<path d="M53.2724 403.333L64.3282 358.24C64.4138 357.891 64.9297 357.961 64.9194 358.32L63.5126 407.559C63.5066 407.77 63.2889 407.909 63.0943 407.826L53.4454 403.68C53.3106 403.622 53.2375 403.476 53.2724 403.333Z" fill="#FFF6D4"/>
<path d="M74.6073 402.832L65.2752 358.205C65.1537 357.624 64.3011 357.701 64.2859 358.294L63.0202 407.701C63.0107 408.07 63.3896 408.321 63.7256 408.17L74.3234 403.39C74.5372 403.294 74.6553 403.062 74.6073 402.832Z" fill="#FFB801"/>
<circle cx="309.5" cy="68.5" r="46.5" fill="#FFF6D4"/>
<circle cx="309.5" cy="68.5" r="31.5" fill="#FFD951"/>
<mask id="mask1_6066_5075" style="mask-type:alpha" maskUnits="userSpaceOnUse" x="278" y="37" width="63" height="63">
<circle cx="309.5" cy="68.5" r="31.5" fill="#FFD951"/>
</mask>
<g mask="url(#mask1_6066_5075)">
<path d="M323.841 107.171L298.488 88.4757V73.1099H319.488L362 107.171H323.841Z" fill="#FFB801"/>
</g>
<rect x="297.463" y="47.7561" width="23.561" height="40.9756" rx="2" fill="white"/>
<circle cx="309.244" cy="85.6584" r="1.02439" fill="#515151"/>
<rect x="299.512" y="51.8538" width="19.4634" height="30.7317" rx="1" fill="#FFD951"/>
<path d="M307 50H311" stroke="#515151" stroke-width="0.5" stroke-linecap="round"/>
<circle opacity="0.5" cx="400" cy="340" r="107" fill="#FFEEB4"/>
<circle cx="401.184" cy="339.605" r="81.3358" fill="#FFFCF0"/>
<mask id="mask2_6066_5075" style="mask-type:alpha" maskUnits="userSpaceOnUse" x="351" y="289" width="100" height="101">
<circle cx="400.953" cy="339.374" r="49.6795" fill="#FFD951"/>
</mask>
<g mask="url(#mask2_6066_5075)">
<circle cx="401.115" cy="339.536" r="49.6795" fill="#FFD951"/>
<path d="M453.472 363.91L428.734 328.627L416.973 345.254L372.769 360.057V389.053L458.745 402.031L453.472 363.91Z" fill="#FFB801"/>
</g>
<path d="M372.769 371.38V303.724C372.769 302.695 373.603 301.861 374.632 301.861H406.143C407.696 301.861 409.161 302.582 410.107 303.813L427.622 326.595C428.294 327.469 428.658 328.54 428.658 329.642V371.38C428.658 374.142 426.419 376.38 423.658 376.38H377.769C375.007 376.38 372.769 374.142 372.769 371.38Z" fill="white"/>
<path opacity="0.4" d="M419.812 341.199L428.734 360.617V364.315H382.907V341.199H419.812Z" fill="#D1D1D1"/>
<path opacity="0.4" d="M379.257 364.315H428.734V371.482C428.734 374.243 426.495 376.482 423.734 376.482H387.773L379.257 364.315Z" fill="#D1D1D1"/>
<rect x="379.232" y="340.983" width="40.9856" height="27.3237" rx="2" fill="#FFD951"/>
<path fill-rule="evenodd" clip-rule="evenodd" d="M420.275 355.645H379.289V353.645H420.275V355.645Z" fill="#FFEEB4"/>
<path fill-rule="evenodd" clip-rule="evenodd" d="M399.239 368.307L399.239 340.983L401.239 340.983L401.239 368.307L399.239 368.307Z" fill="#FFEEB4"/>
<path fill-rule="evenodd" clip-rule="evenodd" d="M379.289 346.359H389.129C390.786 346.359 392.129 347.702 392.129 349.359V359.932C392.129 361.588 390.786 362.932 389.129 362.932H379.289V360.932H389.129C389.682 360.932 390.129 360.484 390.129 359.932V349.359C390.129 348.807 389.682 348.359 389.129 348.359H379.289V346.359Z" fill="#FFEEB4"/>
<path fill-rule="evenodd" clip-rule="evenodd" d="M420.275 346.359H410.435C408.778 346.359 407.435 347.702 407.435 349.359V359.932C407.435 361.588 408.778 362.932 410.435 362.932H420.275V360.932H410.435C409.882 360.932 409.435 360.484 409.435 359.932V349.359C409.435 348.807 409.882 348.359 410.435 348.359H420.275V346.359Z" fill="#FFEEB4"/>
<path d="M389.637 327.588C389.637 327.161 389.485 326.828 389.18 326.59C388.881 326.352 388.351 326.105 387.591 325.85C386.832 325.595 386.211 325.348 385.728 325.11C384.159 324.339 383.375 323.28 383.375 321.933C383.375 321.262 383.569 320.671 383.957 320.161C384.351 319.645 384.905 319.246 385.62 318.963C386.336 318.675 387.14 318.531 388.032 318.531C388.903 318.531 389.682 318.686 390.369 318.997C391.062 319.307 391.6 319.751 391.983 320.327C392.365 320.899 392.557 321.553 392.557 322.29H389.646C389.646 321.797 389.493 321.414 389.188 321.143C388.889 320.871 388.481 320.735 387.966 320.735C387.444 320.735 387.031 320.851 386.726 321.084C386.427 321.312 386.277 321.603 386.277 321.958C386.277 322.268 386.444 322.551 386.776 322.806C387.109 323.055 387.694 323.316 388.531 323.588C389.368 323.854 390.056 324.142 390.594 324.453C391.902 325.207 392.557 326.246 392.557 327.571C392.557 328.63 392.157 329.462 391.359 330.067C390.561 330.671 389.465 330.973 388.074 330.973C387.092 330.973 386.202 330.798 385.404 330.449C384.611 330.094 384.012 329.612 383.608 329.002C383.208 328.387 383.009 327.68 383.009 326.881H385.936C385.936 327.53 386.103 328.009 386.435 328.32C386.774 328.625 387.32 328.777 388.074 328.777C388.556 328.777 388.936 328.675 389.213 328.47C389.496 328.259 389.637 327.965 389.637 327.588Z" fill="#515151"/>
<path d="M398.867 330.807H395.957V318.697H398.867V330.807Z" fill="#515151"/>
<path d="M406.434 318.697L409.137 327.122L411.832 318.697H415.674V330.807H412.747V327.979L413.029 322.19L410.102 330.807H408.172L405.236 322.182L405.519 327.979V330.807H402.6V318.697H406.434Z" fill="#515151"/>
</svg>
