<svg width="432" height="401" viewBox="0 0 432 401" fill="none" xmlns="http://www.w3.org/2000/svg">
<path opacity="0.15" d="M0 0H375V300H0V0Z" fill="#FFEEB4"/>
<path d="M304.697 386.736C367.881 386.736 419.102 335.515 419.102 272.33C419.102 209.146 367.881 157.925 304.697 157.925C241.513 157.925 190.292 209.146 190.292 272.33C190.292 335.515 241.513 386.736 304.697 386.736Z" stroke="#FFD951" stroke-linecap="round" stroke-linejoin="round" stroke-dasharray="2 3"/>
<path d="M263.064 387.977C245.498 387.977 230.886 382.566 220.419 372.099C189.489 341.17 205.292 275.023 255.627 224.713C280.006 200.343 308.749 183.249 336.563 176.597C364.377 169.945 388.055 174.512 403.013 189.504C416.021 202.521 421.289 222.611 417.836 246.061L417.423 246.002C420.85 222.67 415.625 202.706 402.709 189.791C387.827 174.9 364.369 170.376 336.664 176.994C308.96 183.612 280.251 200.68 255.931 225C205.747 275.184 189.954 341.035 220.714 371.786C232.962 384.035 250.942 389.302 272.713 387.023L272.755 387.445C269.536 387.79 266.301 387.967 263.064 387.977Z" fill="#FFD951"/>
<path d="M354.01 368.595C325.006 368.595 291.173 356.997 260.852 334.306C204.945 292.471 181.841 228.536 209.36 191.783C221.422 175.66 241.935 166.729 267.107 166.645V167.067C242.07 167.151 221.684 176.014 209.706 192.036C182.347 228.604 205.409 292.277 261.13 333.969C316.852 375.661 384.442 379.831 411.808 343.254C423.137 328.102 426.235 308.172 420.756 285.617L421.17 285.515C426.674 308.206 423.55 328.254 412.146 343.499C399.535 360.331 378.49 368.587 354.01 368.595Z" fill="#FFD951"/>
<path d="M251.247 319.45C242.365 319.492 233.492 318.883 224.699 317.627C198.531 313.735 182.231 304.053 178.922 290.361C175.613 276.669 185.675 260.622 207.208 245.2C228.742 229.778 259.097 216.846 292.77 208.708C326.442 200.571 359.397 198.224 385.54 202.107C411.683 205.99 428.017 215.672 431.326 229.373C434.635 243.073 424.573 259.103 403.039 274.525C381.505 289.948 351.159 302.871 317.478 311.009C294.408 316.58 271.675 319.45 251.247 319.45ZM359.034 200.731C339.079 200.731 316.406 203.432 292.863 209.122C259.241 217.242 228.903 230.175 207.453 245.529C186.004 260.884 176.068 276.762 179.335 290.268C182.602 303.775 198.75 313.355 224.766 317.213C250.783 321.071 283.755 318.741 317.376 310.621L317.427 310.823L317.376 310.621C386.739 293.864 437.674 257.44 430.912 229.491C426.447 210.987 397.898 200.731 359.034 200.731Z" fill="#FFD951"/>
<path d="M276.333 400.774C274.628 400.77 272.928 400.569 271.268 400.174C257.568 396.865 247.97 380.261 244.256 353.418C240.542 326.574 243.074 292.876 251.423 258.309C259.771 223.742 272.923 192.534 288.463 170.418C304.004 148.301 320.152 137.851 333.853 141.16C347.553 144.469 357.151 161.073 360.865 187.908C364.579 214.743 362.038 248.458 353.69 283.025C345.341 317.593 332.156 348.8 316.615 370.942C302.94 390.357 288.843 400.774 276.333 400.774ZM328.72 140.983C301.505 140.983 267.943 191.369 251.769 258.41C234.616 329.579 243.345 392.999 271.328 399.761C284.834 403.027 300.805 392.695 316.269 370.672C331.734 348.648 344.911 317.432 353.251 282.882L353.453 282.932L353.251 282.882C370.446 211.696 361.692 148.285 333.692 141.532C332.063 141.151 330.394 140.967 328.72 140.983Z" fill="#FFD951"/>
<path d="M319.747 365.269C320.043 365.564 320.419 365.765 320.828 365.846C321.237 365.927 321.661 365.884 322.046 365.725C322.432 365.565 322.761 365.294 322.993 364.947C323.224 364.6 323.348 364.193 323.348 363.775C323.348 363.358 323.224 362.95 322.993 362.603C322.761 362.257 322.432 361.986 322.046 361.826C321.661 361.666 321.237 361.624 320.828 361.705C320.419 361.786 320.043 361.987 319.747 362.281C319.355 362.679 319.134 363.216 319.134 363.775C319.134 364.335 319.355 364.871 319.747 365.269Z" fill="#FFD951"/>
<path d="M321.242 366.096C320.7 366.1 320.174 365.915 319.753 365.574C319.333 365.232 319.044 364.756 318.936 364.225C318.828 363.694 318.907 363.142 319.161 362.664C319.414 362.185 319.826 361.809 320.326 361.6C320.826 361.392 321.383 361.363 321.901 361.519C322.42 361.676 322.868 362.007 323.17 362.457C323.471 362.907 323.607 363.448 323.554 363.987C323.501 364.526 323.263 365.03 322.879 365.413C322.665 365.63 322.41 365.802 322.129 365.919C321.848 366.037 321.546 366.097 321.242 366.096ZM321.242 361.876C320.929 361.875 320.621 361.952 320.346 362.099C320.07 362.246 319.835 362.459 319.661 362.719C319.488 362.979 319.381 363.277 319.35 363.588C319.319 363.899 319.366 364.213 319.485 364.502C319.605 364.79 319.794 365.045 320.035 365.243C320.277 365.441 320.563 365.577 320.87 365.638C321.176 365.699 321.493 365.683 321.792 365.592C322.091 365.501 322.363 365.338 322.584 365.117C322.939 364.761 323.139 364.278 323.139 363.775C323.139 363.272 322.939 362.789 322.584 362.433C322.408 362.256 322.199 362.115 321.969 362.02C321.738 361.924 321.491 361.875 321.242 361.876Z" fill="#FFD951"/>
<path d="M241.522 320.186C241.818 320.48 242.194 320.681 242.603 320.762C243.012 320.843 243.436 320.8 243.822 320.641C244.207 320.481 244.536 320.21 244.768 319.863C244.999 319.516 245.123 319.109 245.123 318.691C245.123 318.274 244.999 317.866 244.768 317.52C244.536 317.173 244.207 316.902 243.822 316.742C243.436 316.582 243.012 316.54 242.603 316.621C242.194 316.702 241.818 316.903 241.522 317.197C241.326 317.393 241.17 317.626 241.064 317.883C240.957 318.139 240.902 318.414 240.902 318.691C240.902 318.969 240.957 319.244 241.064 319.5C241.17 319.757 241.326 319.989 241.522 320.186Z" fill="#FFD951"/>
<path d="M243.008 321.011C242.701 321.007 242.398 320.941 242.117 320.818C241.836 320.695 241.582 320.516 241.37 320.294C240.994 319.914 240.76 319.415 240.71 318.883C240.659 318.35 240.795 317.817 241.093 317.373C241.392 316.929 241.835 316.603 242.348 316.449C242.86 316.295 243.41 316.324 243.903 316.53C244.397 316.736 244.804 317.107 245.055 317.579C245.306 318.052 245.385 318.597 245.28 319.121C245.174 319.645 244.89 320.117 244.476 320.455C244.062 320.794 243.543 320.978 243.008 320.977V321.011ZM243.008 316.791C242.633 316.791 242.266 316.902 241.954 317.111C241.642 317.32 241.398 317.616 241.255 317.963C241.111 318.31 241.074 318.692 241.147 319.06C241.22 319.428 241.401 319.766 241.666 320.032C242.027 320.378 242.508 320.571 243.008 320.571C243.508 320.571 243.989 320.378 244.35 320.032C244.615 319.766 244.796 319.428 244.869 319.06C244.942 318.692 244.905 318.31 244.761 317.963C244.618 317.616 244.374 317.32 244.062 317.111C243.75 316.902 243.383 316.791 243.008 316.791Z" fill="#FFD951"/>
<path d="M213.513 285.541C213.808 285.836 214.184 286.038 214.594 286.12C215.003 286.202 215.428 286.161 215.814 286.001C216.2 285.842 216.53 285.571 216.762 285.224C216.994 284.877 217.118 284.468 217.118 284.051C217.118 283.633 216.994 283.225 216.762 282.878C216.53 282.53 216.2 282.26 215.814 282.1C215.428 281.941 215.003 281.9 214.594 281.981C214.184 282.063 213.808 282.265 213.513 282.561C213.119 282.956 212.897 283.492 212.897 284.051C212.897 284.609 213.119 285.145 213.513 285.541Z" fill="#FFD951"/>
<path d="M214.999 286.368C214.461 286.368 213.941 286.182 213.526 285.84C213.111 285.499 212.827 285.025 212.722 284.498C212.618 283.971 212.7 283.424 212.954 282.95C213.208 282.477 213.618 282.106 214.115 281.901C214.611 281.696 215.164 281.67 215.678 281.827C216.192 281.984 216.635 282.314 216.933 282.762C217.23 283.209 217.363 283.746 217.309 284.28C217.255 284.815 217.017 285.314 216.636 285.693C216.201 286.126 215.612 286.369 214.999 286.368ZM214.999 282.148C214.561 282.15 214.139 282.304 213.802 282.583C213.465 282.862 213.236 283.25 213.153 283.679C213.07 284.108 213.138 284.553 213.346 284.938C213.554 285.323 213.889 285.623 214.294 285.789C214.698 285.954 215.148 285.974 215.566 285.845C215.984 285.717 216.344 285.447 216.586 285.082C216.827 284.718 216.935 284.281 216.89 283.846C216.845 283.411 216.651 283.004 216.341 282.696C215.982 282.347 215.5 282.153 214.999 282.156V282.148Z" fill="#FFD951"/>
<path d="M199.256 252.062C199.551 252.357 199.927 252.558 200.336 252.639C200.746 252.72 201.17 252.677 201.555 252.518C201.94 252.358 202.27 252.087 202.501 251.74C202.733 251.393 202.857 250.985 202.857 250.568C202.857 250.151 202.733 249.743 202.501 249.396C202.27 249.05 201.94 248.779 201.555 248.619C201.17 248.459 200.746 248.417 200.336 248.498C199.927 248.579 199.551 248.78 199.256 249.074C199.058 249.27 198.901 249.502 198.794 249.759C198.687 250.015 198.632 250.29 198.632 250.568C198.632 250.846 198.687 251.121 198.794 251.378C198.901 251.634 199.058 251.867 199.256 252.062Z" fill="#FFD951"/>
<path d="M200.741 252.89C200.128 252.888 199.54 252.646 199.104 252.214C198.779 251.89 198.558 251.476 198.469 251.026C198.379 250.576 198.425 250.109 198.601 249.685C198.777 249.261 199.074 248.898 199.456 248.643C199.838 248.388 200.287 248.252 200.746 248.252C201.205 248.252 201.654 248.388 202.035 248.643C202.417 248.898 202.715 249.261 202.89 249.685C203.066 250.109 203.112 250.576 203.023 251.026C202.933 251.476 202.712 251.89 202.388 252.214C201.949 252.648 201.358 252.89 200.741 252.89ZM199.399 251.919C199.665 252.185 200.003 252.366 200.372 252.439C200.74 252.513 201.122 252.475 201.469 252.332C201.817 252.188 202.113 251.945 202.322 251.632C202.531 251.32 202.642 250.953 202.642 250.577C202.642 250.201 202.531 249.834 202.322 249.521C202.113 249.209 201.817 248.966 201.469 248.822C201.122 248.678 200.74 248.641 200.372 248.714C200.003 248.788 199.665 248.969 199.399 249.235C199.044 249.591 198.844 250.073 198.844 250.577C198.844 251.08 199.044 251.563 199.399 251.919Z" fill="#FFD951"/>
<path d="M204.557 314.715C204.852 315.009 205.228 315.21 205.637 315.291C206.046 315.372 206.47 315.33 206.856 315.17C207.241 315.01 207.57 314.74 207.802 314.393C208.034 314.046 208.157 313.638 208.157 313.221C208.157 312.804 208.034 312.396 207.802 312.049C207.57 311.702 207.241 311.431 206.856 311.272C206.47 311.112 206.046 311.07 205.637 311.151C205.228 311.232 204.852 311.432 204.557 311.727C204.36 311.923 204.204 312.155 204.098 312.412C203.991 312.668 203.937 312.943 203.937 313.221C203.937 313.498 203.991 313.773 204.098 314.03C204.204 314.286 204.36 314.519 204.557 314.715Z" fill="#FFD951"/>
<path d="M206.051 315.542C205.435 315.543 204.843 315.3 204.405 314.867C203.971 314.43 203.728 313.84 203.728 313.225C203.728 312.61 203.971 312.02 204.405 311.583C204.674 311.312 205.006 311.112 205.372 311.001C205.737 310.889 206.124 310.869 206.499 310.943C206.874 311.017 207.224 311.182 207.52 311.424C207.816 311.666 208.047 311.977 208.194 312.33C208.34 312.682 208.398 313.066 208.361 313.446C208.324 313.826 208.193 314.191 207.981 314.509C207.769 314.827 207.482 315.087 207.146 315.267C206.809 315.448 206.433 315.542 206.051 315.542ZM206.051 311.321C205.676 311.322 205.309 311.433 204.997 311.642C204.685 311.851 204.441 312.147 204.298 312.494C204.154 312.841 204.117 313.223 204.19 313.591C204.263 313.959 204.443 314.297 204.709 314.563C205.07 314.909 205.551 315.102 206.051 315.102C206.551 315.102 207.032 314.909 207.393 314.563C207.658 314.297 207.839 313.959 207.912 313.591C207.985 313.223 207.948 312.841 207.804 312.494C207.66 312.147 207.417 311.851 207.105 311.642C206.793 311.433 206.426 311.322 206.051 311.321Z" fill="#FFD951"/>
<path d="M263.064 218.416C263.359 218.711 263.735 218.913 264.145 218.995C264.554 219.077 264.979 219.036 265.365 218.876C265.751 218.717 266.081 218.446 266.313 218.099C266.545 217.752 266.669 217.343 266.669 216.926C266.669 216.508 266.545 216.1 266.313 215.753C266.081 215.405 265.751 215.135 265.365 214.975C264.979 214.816 264.554 214.775 264.145 214.856C263.735 214.938 263.359 215.14 263.064 215.436C262.868 215.631 262.712 215.863 262.606 216.119C262.5 216.375 262.445 216.649 262.445 216.926C262.445 217.203 262.5 217.477 262.606 217.733C262.712 217.988 262.868 218.22 263.064 218.416Z" fill="#FFD951"/>
<path d="M264.558 219.243C264.175 219.245 263.799 219.151 263.461 218.972C263.123 218.793 262.835 218.533 262.622 218.215C262.409 217.898 262.278 217.533 262.24 217.152C262.202 216.772 262.259 216.388 262.405 216.035C262.551 215.681 262.782 215.37 263.078 215.127C263.373 214.885 263.724 214.719 264.099 214.645C264.474 214.571 264.862 214.59 265.227 214.702C265.593 214.813 265.925 215.013 266.195 215.284C266.518 215.609 266.738 216.022 266.827 216.471C266.916 216.92 266.87 217.386 266.695 217.809C266.52 218.232 266.224 218.594 265.843 218.85C265.463 219.105 265.016 219.242 264.558 219.243ZM264.558 215.023C264.309 215.02 264.062 215.068 263.831 215.162C263.601 215.256 263.391 215.395 263.215 215.571C262.898 215.882 262.699 216.294 262.652 216.735C262.605 217.177 262.713 217.621 262.957 217.992C263.201 218.363 263.567 218.638 263.991 218.769C264.415 218.901 264.872 218.881 265.283 218.713C265.694 218.544 266.034 218.239 266.244 217.848C266.455 217.457 266.523 217.005 266.438 216.569C266.352 216.134 266.118 215.741 265.775 215.459C265.432 215.177 265.002 215.023 264.558 215.023Z" fill="#FFD951"/>
<path d="M356.712 174.825C357.007 175.121 357.383 175.322 357.792 175.404C358.202 175.486 358.627 175.445 359.013 175.285C359.399 175.126 359.729 174.855 359.961 174.508C360.193 174.161 360.317 173.753 360.317 173.335C360.317 172.917 360.193 172.509 359.961 172.162C359.729 171.815 359.399 171.544 359.013 171.385C358.627 171.225 358.202 171.184 357.792 171.266C357.383 171.348 357.007 171.549 356.712 171.845C356.516 172.04 356.36 172.273 356.254 172.528C356.147 172.784 356.093 173.058 356.093 173.335C356.093 173.612 356.147 173.886 356.254 174.142C356.36 174.397 356.516 174.63 356.712 174.825Z" fill="#FFD951"/>
<path d="M358.198 175.652C357.893 175.653 357.592 175.594 357.311 175.478C357.03 175.362 356.775 175.192 356.56 174.976C356.344 174.761 356.173 174.505 356.057 174.223C355.94 173.941 355.88 173.64 355.88 173.335C355.88 173.03 355.94 172.728 356.057 172.446C356.173 172.164 356.344 171.908 356.56 171.693C356.776 171.477 357.032 171.306 357.313 171.189C357.595 171.073 357.897 171.013 358.202 171.013C358.507 171.013 358.809 171.073 359.09 171.189C359.372 171.306 359.628 171.477 359.844 171.693C360.277 172.129 360.52 172.719 360.52 173.335C360.52 173.95 360.277 174.54 359.844 174.976C359.628 175.192 359.371 175.363 359.088 175.479C358.806 175.595 358.503 175.654 358.198 175.652ZM358.198 171.431C357.949 171.431 357.702 171.48 357.472 171.576C357.242 171.671 357.033 171.811 356.858 171.988C356.682 172.164 356.543 172.374 356.448 172.604C356.354 172.835 356.306 173.081 356.307 173.33C356.305 173.579 356.353 173.826 356.447 174.056C356.541 174.286 356.68 174.496 356.855 174.673C357.218 175.019 357.7 175.212 358.202 175.212C358.703 175.212 359.185 175.019 359.548 174.673C359.902 174.315 360.1 173.833 360.1 173.33C360.1 172.828 359.902 172.345 359.548 171.988C359.188 171.633 358.703 171.433 358.198 171.431Z" fill="#FFD951"/>
<path d="M360.688 202.006C360.983 202.302 361.359 202.504 361.769 202.586C362.178 202.668 362.603 202.626 362.989 202.467C363.375 202.307 363.705 202.037 363.937 201.69C364.169 201.343 364.293 200.934 364.293 200.517C364.293 200.099 364.169 199.691 363.937 199.343C363.705 198.996 363.375 198.726 362.989 198.566C362.603 198.407 362.178 198.365 361.769 198.447C361.359 198.529 360.983 198.731 360.688 199.027C360.492 199.222 360.336 199.454 360.23 199.71C360.124 199.966 360.069 200.24 360.069 200.517C360.069 200.793 360.124 201.068 360.23 201.323C360.336 201.579 360.492 201.811 360.688 202.006Z" fill="#FFD951"/>
<path d="M362.182 202.832C361.877 202.834 361.574 202.776 361.291 202.66C361.009 202.544 360.752 202.373 360.536 202.157C360.103 201.72 359.859 201.13 359.859 200.515C359.859 199.9 360.103 199.31 360.536 198.873C360.806 198.603 361.138 198.402 361.503 198.291C361.868 198.179 362.255 198.159 362.63 198.233C363.005 198.307 363.356 198.472 363.651 198.714C363.947 198.956 364.178 199.267 364.325 199.62C364.472 199.972 364.529 200.356 364.492 200.736C364.455 201.116 364.325 201.481 364.113 201.799C363.901 202.117 363.614 202.377 363.277 202.557C362.94 202.738 362.564 202.832 362.182 202.832ZM360.84 201.853C361.201 202.199 361.682 202.392 362.182 202.392C362.682 202.392 363.163 202.199 363.524 201.853C363.702 201.677 363.842 201.468 363.938 201.238C364.033 201.007 364.082 200.76 364.082 200.511C364.079 200.008 363.879 199.526 363.524 199.169C363.163 198.823 362.682 198.63 362.182 198.63C361.682 198.63 361.201 198.823 360.84 199.169C360.484 199.525 360.285 200.008 360.285 200.511C360.285 201.014 360.484 201.497 360.84 201.853Z" fill="#FFD951"/>
<path d="M347.097 302.778C347.392 303.074 347.768 303.275 348.178 303.357C348.587 303.439 349.012 303.398 349.398 303.238C349.784 303.079 350.114 302.808 350.346 302.461C350.578 302.114 350.702 301.706 350.702 301.288C350.702 300.87 350.578 300.462 350.346 300.115C350.114 299.768 349.784 299.497 349.398 299.338C349.012 299.178 348.587 299.137 348.178 299.219C347.768 299.301 347.392 299.502 347.097 299.798C346.901 299.993 346.745 300.226 346.639 300.481C346.533 300.737 346.478 301.011 346.478 301.288C346.478 301.565 346.533 301.839 346.639 302.095C346.745 302.35 346.901 302.583 347.097 302.778Z" fill="#FFD951"/>
<path d="M348.575 303.606C347.959 303.607 347.367 303.364 346.929 302.931C346.546 302.551 346.306 302.05 346.251 301.514C346.196 300.978 346.329 300.439 346.627 299.989C346.925 299.54 347.369 299.207 347.885 299.049C348.4 298.891 348.955 298.916 349.453 299.121C349.952 299.325 350.365 299.697 350.62 300.171C350.876 300.646 350.959 301.195 350.855 301.724C350.752 302.253 350.468 302.73 350.052 303.073C349.636 303.416 349.114 303.605 348.575 303.606ZM347.233 302.635C347.499 302.9 347.837 303.08 348.205 303.152C348.573 303.225 348.955 303.187 349.301 303.043C349.648 302.899 349.944 302.655 350.152 302.343C350.36 302.031 350.472 301.664 350.472 301.289C350.472 300.914 350.36 300.547 350.152 300.235C349.944 299.922 349.648 299.679 349.301 299.535C348.955 299.391 348.573 299.353 348.205 299.425C347.837 299.498 347.499 299.678 347.233 299.942C346.876 300.3 346.676 300.784 346.676 301.289C346.676 301.793 346.876 302.278 347.233 302.635Z" fill="#FFD951"/>
<path d="M253.778 388.466C254.073 388.762 254.449 388.964 254.859 389.046C255.268 389.128 255.693 389.086 256.079 388.927C256.465 388.767 256.795 388.497 257.027 388.15C257.259 387.802 257.383 387.394 257.383 386.977C257.383 386.559 257.259 386.151 257.027 385.803C256.795 385.456 256.465 385.186 256.079 385.026C255.693 384.867 255.268 384.825 254.859 384.907C254.449 384.989 254.073 385.191 253.778 385.487C253.384 385.882 253.163 386.418 253.163 386.977C253.163 387.535 253.384 388.071 253.778 388.466Z" fill="#FFD951"/>
<path d="M255.272 389.302C254.968 389.302 254.666 389.242 254.385 389.125C254.104 389.007 253.849 388.835 253.635 388.618C253.201 388.182 252.958 387.592 252.958 386.976C252.958 386.361 253.201 385.771 253.635 385.334C253.905 385.066 254.238 384.867 254.603 384.758C254.968 384.648 255.355 384.63 255.729 384.705C256.103 384.78 256.453 384.946 256.747 385.189C257.042 385.431 257.272 385.742 257.417 386.095C257.563 386.447 257.619 386.83 257.582 387.21C257.544 387.59 257.413 387.954 257.201 388.271C256.989 388.588 256.702 388.848 256.366 389.028C256.029 389.208 255.654 389.302 255.272 389.302ZM253.93 388.323C254.286 388.678 254.769 388.878 255.272 388.878C255.776 388.878 256.258 388.678 256.615 388.323C256.97 387.967 257.17 387.484 257.17 386.981C257.17 386.477 256.97 385.995 256.615 385.638C256.253 385.293 255.773 385.1 255.272 385.1C254.772 385.1 254.292 385.293 253.93 385.638C253.575 385.995 253.375 386.477 253.375 386.981C253.375 387.484 253.575 387.967 253.93 388.323Z" fill="#FFD951"/>
<path d="M414.223 213.444C414.518 213.74 414.894 213.941 415.303 214.023C415.713 214.105 416.137 214.064 416.523 213.904C416.909 213.745 417.239 213.474 417.472 213.127C417.704 212.78 417.828 212.372 417.828 211.954C417.828 211.536 417.704 211.128 417.472 210.781C417.239 210.434 416.909 210.163 416.523 210.004C416.137 209.844 415.713 209.803 415.303 209.885C414.894 209.967 414.518 210.168 414.223 210.464C414.027 210.659 413.871 210.892 413.764 211.147C413.658 211.403 413.604 211.677 413.604 211.954C413.604 212.231 413.658 212.505 413.764 212.761C413.871 213.017 414.027 213.249 414.223 213.444Z" fill="#FFD951"/>
<path d="M415.717 214.27C415.404 214.278 415.093 214.222 414.803 214.106C414.513 213.99 414.249 213.816 414.028 213.595C413.701 213.27 413.477 212.855 413.386 212.402C413.295 211.95 413.34 211.481 413.516 211.054C413.692 210.628 413.991 210.263 414.374 210.006C414.758 209.749 415.209 209.612 415.67 209.612C416.132 209.612 416.583 209.749 416.966 210.006C417.35 210.263 417.648 210.628 417.824 211.054C418 211.481 418.045 211.95 417.954 212.402C417.863 212.855 417.639 213.27 417.312 213.595C416.889 214.02 416.316 214.262 415.717 214.27ZM415.717 210.05C415.341 210.05 414.974 210.162 414.662 210.37C414.35 210.579 414.107 210.876 413.963 211.222C413.82 211.569 413.782 211.951 413.855 212.319C413.928 212.687 414.109 213.026 414.374 213.291C414.736 213.637 415.217 213.83 415.717 213.83C416.217 213.83 416.697 213.637 417.059 213.291C417.324 213.026 417.505 212.687 417.578 212.319C417.651 211.951 417.613 211.569 417.47 211.222C417.326 210.876 417.083 210.579 416.771 210.37C416.459 210.162 416.092 210.05 415.717 210.05Z" fill="#FFD951"/>
<path d="M276.409 158.264L275.991 158.323L276.702 163.304L277.12 163.244L276.409 158.264Z" fill="#FFD951"/>
<path d="M344.877 387.411C341.64 387.408 338.406 387.236 335.186 386.896L335.229 386.474C356.999 388.753 374.979 383.486 387.227 371.28C417.988 340.52 402.185 274.669 352.01 224.493C327.69 200.174 299.015 183.131 271.277 176.479C243.539 169.827 220.114 174.394 205.223 189.276C192.308 202.191 187.091 222.197 190.519 245.495L190.105 245.555C186.653 222.079 191.912 201.989 204.928 188.998C219.92 174.006 243.522 169.414 271.378 176.082C299.235 182.751 327.935 199.836 352.305 224.198C402.65 274.542 418.452 340.688 387.523 371.584C377.055 382 362.435 387.411 344.877 387.411Z" fill="#FFD951"/>
<path d="M253.751 367.984C228.437 367.984 207.991 359.063 195.772 342.512C184.363 327.056 181.25 306.743 186.752 283.76L187.165 283.863C181.689 306.717 184.777 326.911 196.11 342.256C209.349 360.217 232.301 369.104 260.73 367.334C289.158 365.563 319.781 353.315 346.733 332.839C402.425 290.594 425.487 226.077 398.13 189.024C386.156 172.773 319.242 167.105 294.214 167.019V166.592C319.377 166.677 386.41 172.43 398.468 188.767C425.968 226.008 402.873 290.799 346.994 333.181C319.933 353.709 289.31 365.991 260.764 367.761C258.39 367.904 256.052 367.978 253.751 367.984Z" fill="#FFD951"/>
<path d="M356.695 318.875C336.259 318.875 313.535 316.014 290.456 310.434C256.783 302.296 226.395 289.33 204.903 273.959C183.411 258.587 173.307 242.498 176.616 228.798C179.925 215.097 196.183 205.415 222.393 201.532C248.604 197.649 281.483 200.004 315.172 208.133C348.862 216.262 379.242 229.237 400.734 244.617C422.225 259.997 432.321 276.078 429.012 289.769C425.703 303.461 409.445 313.152 383.235 317.035C374.445 318.297 365.575 318.912 356.695 318.875ZM248.967 200.139C240.108 200.098 231.257 200.705 222.486 201.954C196.453 205.82 180.322 215.393 177.055 228.907C173.788 242.422 183.808 258.309 205.173 273.646C226.538 288.984 256.952 301.933 290.583 310.054C359.945 326.81 421.871 317.651 428.632 289.702C431.899 276.196 421.879 260.309 400.514 244.963C379.149 229.616 348.727 216.676 315.096 208.555C292.018 202.959 269.336 200.139 248.967 200.139Z" fill="#FFD951"/>
<path d="M331.599 400.208C319.097 400.208 305 389.825 291.317 370.36C275.785 348.235 262.616 317.019 254.276 282.46C245.936 247.901 243.387 214.085 247.109 187.351C250.832 160.618 260.447 143.912 274.122 140.603C287.797 137.294 303.937 147.677 319.511 169.852C335.085 192.028 348.211 223.185 356.551 257.752C364.891 292.319 367.441 326.127 363.718 352.861C359.995 379.594 350.406 396.266 336.756 399.643C335.066 400.037 333.334 400.227 331.599 400.208ZM279.262 140.417C277.574 140.414 275.89 140.612 274.248 141.008C260.742 144.275 251.246 160.753 247.54 187.436C243.834 214.119 246.358 247.876 254.698 282.384C263.038 316.892 276.164 348.066 291.671 370.174C307.178 392.282 323.098 402.521 336.621 399.254C364.613 392.442 373.358 329.031 356.172 257.828C347.84 223.32 334.705 192.154 319.198 170.038C305.599 150.741 291.621 140.417 279.254 140.417H279.262Z" fill="#FFD951"/>
<path d="M288.185 364.704C287.89 365 287.514 365.201 287.105 365.283C286.695 365.365 286.27 365.324 285.884 365.164C285.498 365.005 285.168 364.734 284.936 364.387C284.704 364.04 284.58 363.632 284.58 363.214C284.58 362.796 284.704 362.388 284.936 362.041C285.168 361.694 285.498 361.423 285.884 361.264C286.27 361.104 286.695 361.063 287.105 361.145C287.514 361.227 287.89 361.428 288.185 361.724C288.381 361.919 288.537 362.151 288.643 362.407C288.75 362.663 288.804 362.937 288.804 363.214C288.804 363.491 288.75 363.765 288.643 364.021C288.537 364.276 288.381 364.508 288.185 364.704Z" fill="#FFD951"/>
<path d="M286.7 365.531C286.084 365.532 285.492 365.289 285.054 364.856C284.726 364.531 284.503 364.116 284.412 363.663C284.32 363.211 284.366 362.742 284.542 362.315C284.717 361.888 285.016 361.523 285.4 361.267C285.783 361.01 286.234 360.873 286.696 360.873C287.157 360.873 287.608 361.01 287.992 361.267C288.375 361.523 288.674 361.888 288.849 362.315C289.025 362.742 289.071 363.211 288.979 363.663C288.888 364.116 288.665 364.531 288.337 364.856C287.902 365.289 287.313 365.531 286.7 365.531ZM286.7 361.31C286.196 361.311 285.713 361.511 285.358 361.868C285.171 362.041 285.021 362.251 284.917 362.484C284.814 362.717 284.758 362.969 284.753 363.224C284.749 363.479 284.796 363.732 284.891 363.968C284.987 364.205 285.129 364.42 285.309 364.6C285.49 364.781 285.705 364.923 285.941 365.018C286.178 365.114 286.431 365.161 286.686 365.156C286.941 365.152 287.192 365.096 287.425 364.992C287.658 364.888 287.868 364.739 288.042 364.552C288.307 364.286 288.488 363.948 288.561 363.58C288.634 363.212 288.597 362.83 288.453 362.483C288.309 362.136 288.066 361.84 287.754 361.631C287.442 361.422 287.075 361.311 286.7 361.31Z" fill="#FFD951"/>
<path d="M366.42 319.618C366.125 319.914 365.749 320.115 365.339 320.197C364.93 320.279 364.505 320.238 364.119 320.078C363.733 319.919 363.403 319.648 363.171 319.301C362.939 318.954 362.815 318.546 362.815 318.128C362.815 317.71 362.939 317.302 363.171 316.955C363.403 316.608 363.733 316.337 364.119 316.178C364.505 316.018 364.93 315.977 365.339 316.059C365.749 316.141 366.125 316.342 366.42 316.638C366.616 316.833 366.772 317.066 366.878 317.321C366.984 317.577 367.039 317.851 367.039 318.128C367.039 318.405 366.984 318.679 366.878 318.935C366.772 319.19 366.616 319.423 366.42 319.618Z" fill="#FFD951"/>
<path d="M364.934 320.455C364.395 320.457 363.871 320.272 363.453 319.932C363.034 319.592 362.747 319.117 362.64 318.588C362.533 318.059 362.612 317.51 362.865 317.033C363.117 316.557 363.528 316.183 364.025 315.975C364.523 315.767 365.078 315.738 365.594 315.894C366.111 316.049 366.557 316.379 366.858 316.827C367.158 317.275 367.294 317.813 367.242 318.35C367.19 318.887 366.953 319.389 366.572 319.771C366.358 319.987 366.103 320.159 365.822 320.277C365.54 320.394 365.239 320.454 364.934 320.455ZM364.934 316.234C364.684 316.233 364.435 316.282 364.204 316.378C363.972 316.474 363.761 316.614 363.584 316.791C363.408 316.967 363.268 317.176 363.174 317.407C363.08 317.637 363.033 317.884 363.035 318.133C363.034 318.635 363.231 319.118 363.584 319.475C363.945 319.821 364.426 320.014 364.926 320.014C365.426 320.014 365.907 319.821 366.268 319.475C366.624 319.119 366.823 318.636 366.823 318.133C366.823 317.63 366.624 317.147 366.268 316.791C366.094 316.614 365.886 316.474 365.657 316.378C365.428 316.282 365.182 316.233 364.934 316.234Z" fill="#FFD951"/>
<path d="M394.428 284.983C394.132 285.278 393.756 285.478 393.347 285.559C392.938 285.64 392.514 285.598 392.129 285.438C391.743 285.279 391.414 285.008 391.182 284.661C390.951 284.314 390.827 283.906 390.827 283.489C390.827 283.072 390.951 282.664 391.182 282.317C391.414 281.97 391.743 281.7 392.129 281.54C392.514 281.38 392.938 281.338 393.347 281.419C393.756 281.5 394.132 281.701 394.428 281.995C394.624 282.191 394.78 282.424 394.887 282.68C394.993 282.937 395.048 283.212 395.048 283.489C395.048 283.767 394.993 284.042 394.887 284.298C394.78 284.554 394.624 284.787 394.428 284.983Z" fill="#FFD951"/>
<path d="M392.942 285.81C392.4 285.814 391.874 285.629 391.454 285.288C391.033 284.946 390.744 284.469 390.636 283.939C390.528 283.408 390.607 282.856 390.861 282.377C391.114 281.899 391.526 281.523 392.026 281.314C392.526 281.106 393.083 281.077 393.601 281.233C394.12 281.389 394.568 281.721 394.87 282.171C395.171 282.621 395.307 283.162 395.254 283.701C395.201 284.24 394.963 284.744 394.579 285.126C394.365 285.343 394.11 285.515 393.829 285.632C393.548 285.75 393.246 285.81 392.942 285.81ZM392.942 281.59C392.692 281.588 392.445 281.636 392.214 281.732C391.984 281.828 391.775 281.969 391.6 282.147C391.264 282.507 391.082 282.983 391.09 283.475C391.099 283.967 391.298 284.437 391.646 284.785C391.994 285.132 392.464 285.332 392.956 285.34C393.448 285.349 393.924 285.167 394.284 284.831C394.64 284.475 394.839 283.992 394.839 283.489C394.839 282.986 394.64 282.503 394.284 282.147C394.109 281.969 393.9 281.828 393.669 281.733C393.439 281.637 393.191 281.588 392.942 281.59Z" fill="#FFD951"/>
<path d="M408.685 251.498C408.391 251.793 408.015 251.995 407.605 252.077C407.195 252.159 406.771 252.118 406.385 251.958C405.999 251.799 405.669 251.528 405.437 251.181C405.204 250.834 405.081 250.425 405.081 250.008C405.081 249.59 405.204 249.182 405.437 248.835C405.669 248.487 405.999 248.217 406.385 248.057C406.771 247.898 407.195 247.857 407.605 247.938C408.015 248.02 408.391 248.222 408.685 248.518C408.882 248.713 409.037 248.945 409.144 249.201C409.25 249.457 409.305 249.731 409.305 250.008C409.305 250.285 409.25 250.559 409.144 250.815C409.037 251.07 408.882 251.302 408.685 251.498Z" fill="#FFD951"/>
<path d="M407.191 252.332C406.652 252.333 406.129 252.147 405.712 251.805C405.295 251.464 405.009 250.988 404.904 250.46C404.798 249.931 404.879 249.382 405.132 248.907C405.386 248.431 405.797 248.058 406.294 247.851C406.792 247.644 407.346 247.617 407.862 247.773C408.378 247.929 408.824 248.259 409.124 248.707C409.424 249.154 409.559 249.693 409.507 250.229C409.455 250.765 409.218 251.267 408.837 251.649C408.622 251.866 408.365 252.038 408.082 252.156C407.8 252.273 407.497 252.333 407.191 252.332ZM407.191 248.112C406.941 248.111 406.694 248.159 406.464 248.255C406.233 248.351 406.024 248.491 405.849 248.669C405.493 249.025 405.293 249.508 405.293 250.011C405.293 250.514 405.493 250.997 405.849 251.353C406.21 251.699 406.691 251.892 407.191 251.892C407.691 251.892 408.172 251.699 408.533 251.353C408.889 250.997 409.089 250.514 409.089 250.011C409.089 249.508 408.889 249.025 408.533 248.669C408.358 248.491 408.149 248.35 407.919 248.254C407.688 248.159 407.441 248.11 407.191 248.112Z" fill="#FFD951"/>
<path d="M403.385 314.149C403.09 314.445 402.714 314.647 402.304 314.728C401.895 314.81 401.47 314.769 401.084 314.609C400.698 314.45 400.368 314.179 400.136 313.832C399.904 313.485 399.78 313.077 399.78 312.659C399.78 312.241 399.904 311.833 400.136 311.486C400.368 311.139 400.698 310.868 401.084 310.709C401.47 310.549 401.895 310.508 402.304 310.59C402.714 310.672 403.09 310.873 403.385 311.169C403.779 311.565 404 312.101 404 312.659C404 313.218 403.779 313.753 403.385 314.149Z" fill="#FFD951"/>
<path d="M401.891 314.976C401.277 314.976 400.687 314.733 400.252 314.299C399.817 313.865 399.572 313.277 399.569 312.663C399.568 312.281 399.661 311.904 399.841 311.566C400.02 311.229 400.28 310.941 400.597 310.728C400.915 310.515 401.28 310.383 401.66 310.345C402.041 310.308 402.425 310.364 402.778 310.51C403.131 310.656 403.443 310.888 403.685 311.183C403.928 311.479 404.094 311.83 404.168 312.205C404.242 312.58 404.223 312.967 404.111 313.333C403.999 313.698 403.799 314.031 403.528 314.301C403.314 314.516 403.059 314.687 402.778 314.803C402.496 314.919 402.195 314.978 401.891 314.976ZM401.891 310.755C401.387 310.755 400.904 310.955 400.548 311.312C400.192 311.668 399.991 312.151 399.991 312.655C399.992 313.03 400.103 313.397 400.312 313.709C400.521 314.021 400.817 314.264 401.164 314.408C401.511 314.551 401.893 314.589 402.261 314.516C402.629 314.443 402.967 314.262 403.233 313.997C403.498 313.731 403.679 313.393 403.752 313.025C403.825 312.656 403.787 312.275 403.644 311.928C403.5 311.581 403.257 311.285 402.945 311.076C402.633 310.867 402.266 310.756 401.891 310.755Z" fill="#FFD951"/>
<path d="M344.878 217.858C344.582 218.153 344.206 218.353 343.797 218.434C343.388 218.515 342.964 218.473 342.578 218.313C342.193 218.154 341.864 217.883 341.632 217.536C341.4 217.189 341.277 216.781 341.277 216.364C341.277 215.947 341.4 215.539 341.632 215.192C341.864 214.845 342.193 214.575 342.578 214.415C342.964 214.255 343.388 214.213 343.797 214.294C344.206 214.375 344.582 214.576 344.878 214.87C345.27 215.268 345.491 215.805 345.491 216.364C345.491 216.924 345.27 217.46 344.878 217.858Z" fill="#FFD951"/>
<path d="M343.383 218.686C343.079 218.687 342.777 218.627 342.495 218.51C342.214 218.392 341.959 218.22 341.746 218.002C341.529 217.787 341.357 217.531 341.24 217.249C341.122 216.968 341.062 216.665 341.062 216.36C341.062 216.055 341.122 215.753 341.24 215.471C341.357 215.189 341.529 214.933 341.746 214.718C341.96 214.502 342.215 214.33 342.496 214.214C342.777 214.098 343.079 214.04 343.383 214.043C343.688 214.042 343.989 214.101 344.27 214.216C344.551 214.332 344.806 214.503 345.021 214.718C345.343 215.044 345.562 215.457 345.65 215.907C345.738 216.356 345.692 216.822 345.518 217.245C345.343 217.668 345.047 218.031 344.668 218.287C344.288 218.543 343.841 218.682 343.383 218.686ZM343.383 214.465C343.134 214.463 342.886 214.512 342.656 214.608C342.425 214.703 342.216 214.844 342.041 215.022C341.686 215.378 341.486 215.861 341.486 216.364C341.486 216.868 341.686 217.35 342.041 217.707C342.403 218.052 342.883 218.245 343.383 218.245C343.884 218.245 344.364 218.052 344.726 217.707C344.991 217.441 345.172 217.103 345.245 216.735C345.318 216.366 345.28 215.985 345.137 215.638C344.993 215.291 344.75 214.994 344.438 214.786C344.126 214.577 343.759 214.465 343.383 214.465Z" fill="#FFD951"/>
<path d="M251.229 174.259C250.933 174.553 250.557 174.754 250.148 174.835C249.739 174.916 249.315 174.874 248.929 174.714C248.544 174.554 248.215 174.283 247.983 173.937C247.752 173.59 247.628 173.182 247.628 172.765C247.628 172.347 247.752 171.94 247.983 171.593C248.215 171.246 248.544 170.975 248.929 170.815C249.315 170.656 249.739 170.613 250.148 170.694C250.557 170.775 250.933 170.976 251.229 171.271C251.621 171.669 251.842 172.205 251.842 172.765C251.842 173.324 251.621 173.861 251.229 174.259Z" fill="#FFD951"/>
<path d="M249.735 175.103C249.2 175.093 248.685 174.899 248.277 174.553C247.869 174.208 247.593 173.731 247.495 173.205C247.398 172.679 247.485 172.136 247.742 171.667C247.999 171.197 248.411 170.832 248.907 170.631C249.402 170.43 249.952 170.406 250.463 170.564C250.975 170.722 251.415 171.052 251.711 171.498C252.008 171.943 252.141 172.478 252.088 173.01C252.036 173.542 251.801 174.04 251.424 174.42C251.203 174.642 250.94 174.818 250.65 174.935C250.36 175.053 250.048 175.11 249.735 175.103ZM249.735 170.883C249.486 170.881 249.239 170.93 249.008 171.026C248.778 171.121 248.569 171.262 248.393 171.44C248.037 171.796 247.838 172.279 247.838 172.782C247.838 173.285 248.037 173.768 248.393 174.124C248.754 174.47 249.235 174.663 249.735 174.663C250.235 174.663 250.716 174.47 251.077 174.124C251.343 173.858 251.523 173.52 251.597 173.152C251.67 172.784 251.632 172.402 251.488 172.055C251.345 171.708 251.102 171.412 250.79 171.203C250.478 170.995 250.111 170.883 249.735 170.883Z" fill="#FFD951"/>
<path d="M247.278 201.449C246.983 201.744 246.607 201.944 246.198 202.025C245.789 202.106 245.365 202.064 244.979 201.904C244.594 201.744 244.265 201.474 244.033 201.127C243.801 200.78 243.678 200.372 243.678 199.955C243.678 199.538 243.801 199.13 244.033 198.783C244.265 198.436 244.594 198.166 244.979 198.006C245.365 197.846 245.789 197.804 246.198 197.885C246.607 197.966 246.983 198.166 247.278 198.461C247.671 198.859 247.891 199.396 247.891 199.955C247.891 200.514 247.671 201.051 247.278 201.449Z" fill="#FFD951"/>
<path d="M245.759 202.276C245.222 202.277 244.701 202.093 244.285 201.753C243.868 201.414 243.583 200.941 243.476 200.414C243.37 199.888 243.449 199.34 243.701 198.866C243.953 198.391 244.361 198.019 244.857 197.812C245.353 197.605 245.905 197.576 246.419 197.731C246.934 197.885 247.379 198.214 247.678 198.66C247.978 199.105 248.114 199.641 248.062 200.176C248.011 200.711 247.776 201.211 247.397 201.592C247.183 201.809 246.928 201.981 246.647 202.098C246.366 202.216 246.064 202.276 245.759 202.276ZM245.759 198.055C245.32 198.054 244.894 198.206 244.554 198.485C244.214 198.763 243.981 199.151 243.895 199.582C243.809 200.013 243.875 200.46 244.082 200.848C244.289 201.236 244.624 201.54 245.029 201.708C245.435 201.877 245.887 201.899 246.308 201.772C246.728 201.645 247.092 201.376 247.336 201.01C247.58 200.645 247.691 200.207 247.648 199.769C247.605 199.332 247.412 198.923 247.101 198.612C246.926 198.435 246.717 198.294 246.486 198.199C246.256 198.103 246.009 198.054 245.759 198.055Z" fill="#FFD951"/>
<path d="M260.843 302.222C260.548 302.516 260.171 302.717 259.762 302.798C259.353 302.879 258.929 302.837 258.544 302.677C258.158 302.517 257.829 302.246 257.597 301.899C257.366 301.552 257.242 301.145 257.242 300.728C257.242 300.31 257.366 299.903 257.597 299.556C257.829 299.209 258.158 298.938 258.544 298.778C258.929 298.618 259.353 298.576 259.762 298.657C260.171 298.738 260.548 298.939 260.843 299.233C261.236 299.631 261.456 300.168 261.456 300.728C261.456 301.287 261.236 301.824 260.843 302.222Z" fill="#FFD951"/>
<path d="M259.35 303.049C258.808 303.052 258.282 302.867 257.862 302.526C257.441 302.184 257.152 301.708 257.044 301.177C256.936 300.646 257.016 300.094 257.269 299.616C257.523 299.137 257.935 298.761 258.434 298.553C258.934 298.344 259.491 298.315 260.01 298.471C260.528 298.628 260.977 298.959 261.278 299.409C261.58 299.859 261.715 300.4 261.662 300.939C261.609 301.478 261.371 301.982 260.988 302.365C260.774 302.582 260.519 302.754 260.238 302.871C259.956 302.989 259.655 303.049 259.35 303.049ZM259.35 298.828C259.1 298.826 258.853 298.875 258.622 298.97C258.392 299.066 258.183 299.207 258.008 299.385C257.672 299.745 257.49 300.221 257.498 300.713C257.507 301.205 257.706 301.675 258.054 302.023C258.402 302.371 258.872 302.57 259.364 302.579C259.856 302.587 260.332 302.405 260.692 302.069C260.957 301.804 261.138 301.465 261.211 301.097C261.284 300.729 261.247 300.347 261.103 300.001C260.96 299.654 260.716 299.357 260.404 299.148C260.092 298.94 259.725 298.828 259.35 298.828Z" fill="#FFD951"/>
<path d="M354.155 387.909C353.86 388.204 353.483 388.404 353.074 388.485C352.665 388.566 352.241 388.524 351.856 388.364C351.47 388.204 351.141 387.934 350.909 387.587C350.678 387.24 350.554 386.832 350.554 386.415C350.554 385.998 350.678 385.59 350.909 385.243C351.141 384.896 351.47 384.626 351.856 384.466C352.241 384.306 352.665 384.264 353.074 384.345C353.483 384.426 353.86 384.626 354.155 384.921C354.352 385.116 354.509 385.349 354.616 385.606C354.723 385.862 354.778 386.137 354.778 386.415C354.778 386.693 354.723 386.968 354.616 387.225C354.509 387.481 354.352 387.714 354.155 387.909Z" fill="#FFD951"/>
<path d="M352.659 388.736C352.279 388.729 351.907 388.629 351.575 388.444C351.242 388.259 350.961 387.996 350.754 387.677C350.547 387.357 350.422 386.993 350.39 386.614C350.357 386.235 350.418 385.854 350.567 385.505C350.717 385.155 350.949 384.847 351.245 384.608C351.541 384.37 351.891 384.207 352.264 384.136C352.637 384.064 353.023 384.085 353.386 384.197C353.749 384.308 354.079 384.508 354.348 384.777C354.781 385.214 355.024 385.804 355.024 386.419C355.024 387.034 354.781 387.624 354.348 388.061C354.126 388.28 353.862 388.453 353.572 388.569C353.282 388.685 352.972 388.742 352.659 388.736ZM352.659 384.515C352.284 384.516 351.917 384.627 351.605 384.836C351.293 385.045 351.05 385.341 350.906 385.688C350.763 386.035 350.725 386.417 350.798 386.785C350.871 387.153 351.052 387.491 351.317 387.757C351.678 388.103 352.159 388.296 352.659 388.296C353.159 388.296 353.64 388.103 354.001 387.757C354.267 387.491 354.447 387.153 354.521 386.785C354.594 386.417 354.556 386.035 354.412 385.688C354.269 385.341 354.026 385.045 353.714 384.836C353.402 384.627 353.035 384.516 352.659 384.515Z" fill="#FFD951"/>
<path d="M193.718 212.878C193.423 213.173 193.047 213.375 192.638 213.457C192.228 213.539 191.804 213.498 191.418 213.338C191.032 213.178 190.702 212.908 190.469 212.561C190.237 212.214 190.113 211.805 190.113 211.388C190.113 210.97 190.237 210.562 190.469 210.215C190.702 209.867 191.032 209.597 191.418 209.437C191.804 209.278 192.228 209.236 192.638 209.318C193.047 209.4 193.423 209.602 193.718 209.898C194.113 210.293 194.334 210.829 194.334 211.388C194.334 211.946 194.113 212.482 193.718 212.878Z" fill="#FFD951"/>
<path d="M192.225 213.715C191.683 213.718 191.157 213.533 190.736 213.192C190.316 212.85 190.027 212.374 189.919 211.843C189.811 211.312 189.89 210.76 190.144 210.282C190.397 209.803 190.809 209.427 191.309 209.219C191.809 209.01 192.366 208.981 192.884 209.137C193.403 209.294 193.851 209.625 194.153 210.075C194.454 210.525 194.59 211.066 194.537 211.605C194.484 212.144 194.245 212.648 193.862 213.031C193.648 213.248 193.393 213.42 193.112 213.537C192.831 213.655 192.529 213.715 192.225 213.715ZM192.225 209.494C191.975 209.493 191.728 209.542 191.498 209.638C191.267 209.733 191.058 209.874 190.882 210.051C190.527 210.407 190.327 210.89 190.327 211.393C190.327 211.896 190.527 212.379 190.882 212.735C191.103 212.956 191.375 213.12 191.674 213.21C191.973 213.301 192.29 213.317 192.596 213.256C192.903 213.195 193.189 213.06 193.431 212.861C193.673 212.663 193.862 212.408 193.981 212.12C194.101 211.831 194.147 211.517 194.116 211.206C194.086 210.895 193.979 210.597 193.805 210.337C193.631 210.077 193.396 209.865 193.12 209.718C192.845 209.57 192.537 209.494 192.225 209.494Z" fill="#FFD951"/>
<circle cx="197.785" cy="265.477" r="20.7719" fill="#FFF6D4"/>
<circle cx="197.616" cy="265.645" r="14.5235" fill="#FFD951"/>
<mask id="mask0_6060_7416" style="mask-type:alpha" maskUnits="userSpaceOnUse" x="183" y="251" width="30" height="30">
<circle cx="197.616" cy="265.645" r="14.5235" fill="#FFD951"/>
</mask>
<g mask="url(#mask0_6060_7416)">
<path d="M199.305 282.025L194.07 276.621L195.04 275.951L201.364 276.42L210.734 279.699L199.305 282.025Z" fill="#FFB801"/>
</g>
<path d="M199.306 259.875C199.306 260.611 198.709 261.208 197.973 261.208C197.236 261.208 196.639 260.611 196.639 259.875C196.639 259.138 197.236 258.541 197.973 258.541C198.709 258.541 199.306 259.138 199.306 259.875Z" fill="#FFB801"/>
<path fill-rule="evenodd" clip-rule="evenodd" d="M193.177 254.597C193.309 254.728 193.31 254.942 193.179 255.074C192.552 255.708 192.054 256.461 191.714 257.289C191.374 258.118 191.199 259.006 191.199 259.903C191.199 260.8 191.374 261.688 191.714 262.517C192.054 263.345 192.552 264.098 193.179 264.732C193.31 264.864 193.309 265.078 193.177 265.209C193.044 265.341 192.83 265.34 192.699 265.207C192.009 264.51 191.462 263.683 191.089 262.773C190.716 261.863 190.524 260.888 190.524 259.903C190.524 258.918 190.716 257.943 191.089 257.033C191.462 256.123 192.009 255.296 192.699 254.599C192.83 254.467 193.044 254.466 193.177 254.597ZM202.732 254.597C202.865 254.466 203.079 254.467 203.21 254.599C203.9 255.296 204.447 256.123 204.82 257.033C205.193 257.943 205.385 258.918 205.385 259.903C205.385 260.888 205.193 261.863 204.82 262.773C204.447 263.683 203.9 264.51 203.21 265.207C203.079 265.34 202.865 265.341 202.732 265.209C202.6 265.078 202.599 264.864 202.73 264.732C203.357 264.098 203.855 263.345 204.195 262.517C204.535 261.688 204.71 260.8 204.71 259.903C204.71 259.006 204.535 258.118 204.195 257.289C203.855 256.461 203.357 255.708 202.73 255.074C202.599 254.942 202.6 254.728 202.732 254.597ZM195.405 256.849C195.538 256.98 195.539 257.194 195.408 257.327C194.732 258.009 194.352 258.936 194.352 259.903C194.352 260.87 194.732 261.797 195.408 262.48C195.539 262.612 195.538 262.826 195.405 262.957C195.273 263.089 195.059 263.087 194.928 262.955C194.126 262.145 193.676 261.047 193.676 259.903C193.676 258.759 194.126 257.661 194.928 256.851C195.059 256.719 195.273 256.718 195.405 256.849ZM200.504 256.849C200.636 256.718 200.85 256.719 200.981 256.851C201.783 257.661 202.233 258.759 202.233 259.903C202.233 261.047 201.783 262.145 200.981 262.955C200.85 263.087 200.636 263.089 200.504 262.957C200.371 262.826 200.37 262.612 200.501 262.48C201.177 261.797 201.557 260.87 201.557 259.903C201.557 258.936 201.177 258.009 200.501 257.327C200.37 257.194 200.371 256.98 200.504 256.849Z" fill="white"/>
<path d="M194.034 276.402L197.283 263.149C197.368 262.8 197.884 262.87 197.874 263.229L197.461 277.7C197.455 277.912 197.237 278.051 197.042 277.967L194.207 276.749C194.072 276.691 193.999 276.544 194.034 276.402Z" fill="#FFF6D4"/>
<path d="M201.145 276.135L198.63 264.107C198.509 263.526 197.656 263.603 197.641 264.197L197.3 277.513C197.29 277.882 197.669 278.133 198.005 277.982L200.861 276.693C201.075 276.597 201.193 276.365 201.145 276.135Z" fill="#FFB801"/>
<circle cx="280.535" cy="163.474" r="15.7056" fill="#FFF6D4"/>
<circle cx="280.535" cy="163.474" r="10.6393" fill="#FFD951"/>
<mask id="mask1_6060_7416" style="mask-type:alpha" maskUnits="userSpaceOnUse" x="269" y="152" width="23" height="23">
<circle cx="280.535" cy="163.474" r="10.6393" fill="#FFD951"/>
</mask>
<g mask="url(#mask1_6060_7416)">
<path d="M285.379 176.536L276.816 170.221V165.031H283.909L298.267 176.536H285.379Z" fill="#FFB801"/>
</g>
<rect x="276.47" y="156.468" width="7.95784" height="13.8397" rx="2" fill="white"/>
<circle cx="280.449" cy="169.27" r="0.345993" fill="#515151"/>
<rect x="277.162" y="157.852" width="6.57387" height="10.3798" rx="1" fill="#FFD951"/>
<path d="M279.691 157.226H281.042" stroke="#515151" stroke-width="0.5" stroke-linecap="round"/>
<circle opacity="0.5" cx="311.102" cy="255.175" r="36.1398" fill="#FFEEB4"/>
<circle cx="311.502" cy="255.042" r="27.4716" fill="#FFFCF0"/>
<mask id="mask2_6060_7416" style="mask-type:alpha" maskUnits="userSpaceOnUse" x="294" y="238" width="35" height="34">
<path d="M328.203 254.963C328.203 264.23 320.691 271.743 311.424 271.743C302.156 271.743 294.644 264.23 294.644 254.963C294.644 245.696 302.156 238.184 311.424 238.184C320.691 238.184 328.203 245.696 328.203 254.963Z" fill="#FFD951"/>
</mask>
<g mask="url(#mask2_6060_7416)">
<path d="M328.258 255.017C328.258 264.284 320.746 271.796 311.479 271.796C302.212 271.796 294.699 264.284 294.699 255.017C294.699 245.75 302.212 238.237 311.479 238.237C320.746 238.237 328.258 245.75 328.258 255.017Z" fill="#FFD951"/>
<path d="M329.162 263.25L320.807 251.333L316.835 256.949L301.904 261.949V271.742L330.943 276.126L329.162 263.25Z" fill="#FFB801"/>
</g>
<path d="M301.904 265.772V242.921C301.904 242.574 302.186 242.292 302.534 242.292H313.177C313.701 242.292 314.196 242.536 314.516 242.951L320.431 250.646C320.658 250.941 320.781 251.303 320.781 251.675V265.773C320.781 266.705 320.025 267.461 319.092 267.461H303.593C302.66 267.461 301.904 266.705 301.904 265.772Z" fill="white"/>
<path opacity="0.4" d="M317.793 255.579L320.807 262.137V263.387H305.329V255.579H317.793Z" fill="#D1D1D1"/>
<path opacity="0.4" d="M304.096 263.388H320.807V265.808C320.807 266.741 320.051 267.497 319.118 267.497H306.972L304.096 263.388Z" fill="#D1D1D1"/>
<path d="M304.087 256.182C304.087 255.809 304.39 255.507 304.763 255.507H317.255C317.628 255.507 317.931 255.809 317.931 256.182V264.06C317.931 264.433 317.628 264.736 317.255 264.736H304.763C304.39 264.736 304.087 264.433 304.087 264.06V256.182Z" fill="#FFD951"/>
<path fill-rule="evenodd" clip-rule="evenodd" d="M317.949 260.459H304.106V259.783H317.949V260.459Z" fill="#FFEEB4"/>
<path fill-rule="evenodd" clip-rule="evenodd" d="M310.844 264.735L310.844 255.506L311.52 255.506L311.52 264.735L310.844 264.735Z" fill="#FFEEB4"/>
<path fill-rule="evenodd" clip-rule="evenodd" d="M304.106 257.321H307.43C307.989 257.321 308.443 257.775 308.443 258.335V261.906C308.443 262.465 307.989 262.919 307.43 262.919H304.106V262.243H307.43C307.616 262.243 307.767 262.092 307.767 261.906V258.335C307.767 258.148 307.616 257.997 307.43 257.997H304.106V257.321Z" fill="#FFEEB4"/>
<path fill-rule="evenodd" clip-rule="evenodd" d="M317.949 257.321H314.626C314.066 257.321 313.612 257.775 313.612 258.335V261.906C313.612 262.465 314.066 262.919 314.626 262.919H317.949V262.243H314.626C314.439 262.243 314.288 262.092 314.288 261.906V258.335C314.288 258.148 314.439 257.997 314.626 257.997H317.949V257.321Z" fill="#FFEEB4"/>
<path d="M307.602 250.982C307.602 250.838 307.551 250.725 307.448 250.645C307.346 250.564 307.168 250.481 306.911 250.395C306.655 250.309 306.445 250.225 306.282 250.145C305.752 249.885 305.487 249.527 305.487 249.072C305.487 248.845 305.552 248.646 305.684 248.473C305.816 248.299 306.004 248.164 306.245 248.069C306.487 247.972 306.758 247.923 307.06 247.923C307.354 247.923 307.617 247.975 307.849 248.08C308.083 248.185 308.265 248.335 308.394 248.53C308.523 248.723 308.588 248.943 308.588 249.193H307.605C307.605 249.026 307.553 248.897 307.45 248.805C307.349 248.713 307.212 248.667 307.037 248.667C306.861 248.667 306.722 248.707 306.619 248.785C306.518 248.862 306.467 248.96 306.467 249.08C306.467 249.185 306.523 249.281 306.636 249.367C306.748 249.451 306.946 249.539 307.229 249.631C307.511 249.721 307.744 249.818 307.925 249.923C308.367 250.178 308.588 250.529 308.588 250.976C308.588 251.334 308.453 251.615 308.184 251.819C307.914 252.023 307.544 252.125 307.074 252.125C306.743 252.125 306.442 252.066 306.172 251.948C305.904 251.828 305.702 251.665 305.566 251.459C305.431 251.252 305.363 251.013 305.363 250.743H306.352C306.352 250.962 306.408 251.124 306.521 251.229C306.635 251.332 306.819 251.384 307.074 251.384C307.237 251.384 307.365 251.349 307.459 251.28C307.554 251.209 307.602 251.109 307.602 250.982Z" fill="#515151"/>
<path d="M310.72 252.069H309.736V247.979H310.72V252.069Z" fill="#515151"/>
<path d="M313.275 247.979L314.188 250.825L315.098 247.979H316.396V252.069H315.407V251.114L315.503 249.159L314.514 252.069H313.862L312.871 249.156L312.966 251.114V252.069H311.98V247.979H313.275Z" fill="#515151"/>
</svg>
